<svg width="708" height="708" viewBox="0 0 708 708" fill="none" xmlns="http://www.w3.org/2000/svg">
<g clip-path="url(#clip0)">
<rect x="512" y="351" width="30" height="24" fill="#202B43"/>
<path d="M313 34H371V156L353 174V213H313V156V34Z" fill="#202B43"/>
<rect x="186" y="174" width="127" height="29" fill="#202B43"/>
<rect x="268" y="203" width="21" height="52" fill="#202B43"/>
<rect x="227" y="240" width="41" height="15" fill="#202B43"/>
<rect x="262" y="316" width="40" height="48" fill="#202B43"/>
<rect x="302" y="340" width="6" height="24" fill="#202B43"/>
<rect x="250" y="340" width="12" height="24" fill="#202B43"/>
<rect x="206" y="275" width="44" height="115" fill="#202B43"/>
<rect x="227" y="255" width="23" height="20" fill="#202B43"/>
<rect x="203" y="275" width="3" height="40" fill="#202B43"/>
<path fill-rule="evenodd" clip-rule="evenodd" d="M11 165H56V208H178V275H203V341H157V326H11V165ZM126 258H68V286H126V258Z" fill="#202B43"/>
<rect x="101" y="136" width="62" height="35" fill="#202B43"/>
<rect x="125" y="171" width="20" height="37" fill="#202B43"/>
<rect x="163" y="136" width="23" height="23" fill="#202B43"/>
<rect x="186" y="118" width="31" height="56" fill="#202B43"/>
<rect x="530" y="92" width="88" height="41" fill="#202B43"/>
<rect x="524" y="92" width="6" height="25" fill="#202B43"/>
<rect x="478" y="92" width="46" height="64" fill="#202B43"/>
<rect x="428" y="156" width="18" height="13" fill="#202B43"/>
<rect x="371" y="132" width="107" height="24" fill="#202B43"/>
<rect x="519" y="211" width="3" height="18" fill="#202B43"/>
<rect x="612" y="389" width="28" height="35" fill="#202B43"/>
<rect x="607" y="332" width="33" height="57" fill="#202B43"/>
<path d="M542 331H589V356H607V389H600L576 413H542V331Z" fill="#202B43"/>
<path d="M448 281H505V303L496 320V351H512V399H466L448 381V281Z" fill="#202B43"/>
<rect x="479" y="278" width="14" height="3" fill="#202B43"/>
<rect x="429" y="258" width="64" height="20" fill="#202B43"/>
<path d="M428 169H519V242H493V258H454V217H428V169Z" fill="#202B43"/>
<path fill-rule="evenodd" clip-rule="evenodd" d="M542 203H522V229L531 248V302H565V331H589V279H641L675 311H701V288H698V200H701V175H658V150H542V203ZM642 168H592V208H642V168Z" fill="#202B43"/>
<rect x="568" y="133" width="19" height="6" fill="#202B43"/>
<rect x="563" y="139" width="28" height="11" fill="#202B43"/>
<rect x="45" y="326" width="23" height="45" fill="#202B43"/>
<rect x="308" y="375" width="33" height="26" fill="#202B43"/>
<rect x="308" y="322" width="58" height="53" fill="#202B43"/>
<rect x="343" y="319" width="15" height="3" fill="#202B43"/>
<rect x="326" y="278" width="64" height="41" fill="#202B43"/>
<rect x="390" y="300" width="12" height="19" fill="#202B43"/>
<rect x="402" y="258" width="27" height="61" fill="#202B43"/>
<rect x="128" y="424" width="23" height="13" fill="#202B43"/>
<rect x="35" y="371" width="120" height="53" fill="#202B43"/>
<rect x="35" y="424" width="52" height="24" fill="#202B43"/>
<rect x="180" y="497" width="12" height="21" fill="#202B43"/>
<rect x="192" y="439" width="35" height="79" fill="#202B43"/>
<rect x="227" y="459" width="22" height="24" fill="#202B43"/>
<rect x="249" y="435" width="40" height="73" fill="#202B43"/>
<rect x="289" y="459" width="5" height="24" fill="#202B43"/>
<rect x="597" y="441" width="3" height="14" fill="#202B43"/>
<rect x="551" y="436" width="46" height="24" fill="#202B43"/>
<rect x="551" y="460" width="23" height="10" fill="#202B43"/>
<rect x="425" y="470" width="149" height="24" fill="#202B43"/>
<rect x="425" y="413" width="18" height="57" fill="#202B43"/>
<rect x="363" y="436" width="62" height="23" fill="#202B43"/>
<rect x="293" y="401" width="70" height="100" fill="#202B43"/>
<rect x="501" y="505" width="140" height="37" fill="#202B43"/>
<path d="M641 464H600V471H589V505H641V464Z" fill="#202B43"/>
<rect x="600" y="424" width="75" height="40" fill="#202B43"/>
<rect x="273" y="570" width="13" height="25" fill="#202B43"/>
<path d="M286 570H377V683H347V682H328V680H299V679H283V605H286V570Z" fill="#202B43"/>
<rect x="362" y="550" width="15" height="20" fill="#202B43"/>
<rect x="222" y="570" width="51" height="31" fill="#202B43"/>
<path d="M110 536H217V565L222 570V601H171V582H110V536Z" fill="#202B43"/>
<rect x="110" y="436" width="70" height="100" fill="#202B43"/>
<rect x="377" y="567" width="69" height="31" fill="#202B43"/>
<rect x="446" y="505" width="55" height="93" fill="#202B43"/>
<rect x="460" y="505" width="24" height="13" fill="#273552"/>
<rect x="629" y="464" width="12" height="20" fill="#273552"/>
<rect x="635" y="495" width="6" height="28" fill="#273552"/>
<rect x="629" y="534" width="12" height="8" fill="#273552"/>
<rect x="656" y="232" width="12" height="24" fill="#273552"/>
<rect x="630" y="208" width="12" height="12" fill="#273552"/>
<rect x="542" y="244" width="12" height="12" fill="#273552"/>
<rect x="541" y="203" width="1" height="99" fill="#182338"/>
<rect x="454" y="217" width="12" height="12" fill="#273552"/>
<rect x="454" y="229" width="11" height="6" fill="#273552"/>
<rect x="448" y="313" width="7" height="6" fill="#273552"/>
<rect x="448" y="319" width="15" height="12" fill="#273552"/>
<rect x="429" y="258" width="1" height="21" fill="#182338"/>
<rect x="421" y="300" width="8" height="6" fill="#273552"/>
<rect x="420" y="306" width="9" height="13" fill="#273552"/>
<rect x="401" y="300" width="1" height="19" fill="#182338"/>
<rect x="341" y="425" width="22" height="11" fill="#273552"/>
<path d="M304 489H295V491H294V499H295V501H304V499H305V491H304V489Z" fill="#273552"/>
<path d="M310 494H306V495H305V500H306V501H310V500H311V495H310V494Z" fill="#273552"/>
<rect x="276" y="435" width="13" height="13" fill="#273552"/>
<rect x="192" y="439" width="6" height="58" fill="#273552"/>
<rect x="110" y="436" width="19" height="42" fill="#273552"/>
<rect x="129" y="470" width="5" height="8" fill="#273552"/>
<rect x="35" y="436" width="12" height="12" fill="#273552"/>
<rect x="47" y="445" width="16" height="3" fill="#273552"/>
<rect x="35" y="432" width="4" height="4" fill="#273552"/>
<rect x="110" y="371" width="13" height="13" fill="#273552"/>
<path d="M128 371H124V372H123V377H124V378H128V377H129V372H128V371Z" fill="#273552"/>
<rect x="11" y="314" width="24" height="12" fill="#273552"/>
<rect x="11" y="237" width="31" height="13" fill="#273552"/>
<rect x="45" y="165" width="12" height="12" fill="#273552"/>
<rect x="50" y="177" width="7" height="6" fill="#273552"/>
<rect x="93" y="246" width="11" height="12" fill="#273552"/>
<rect x="157" y="233" width="11" height="10" fill="#273552"/>
<rect x="186" y="191" width="12" height="11" fill="#273552"/>
<rect x="239" y="306" width="11" height="13" fill="#273552"/>
<rect x="574" y="436" width="1" height="23" fill="#182338"/>
<path fill-rule="evenodd" clip-rule="evenodd" d="M168 208H169V296H179V287H180H203H204V288V315H203V288H180V296V297H179H178V326H177H156V325H177V297H169H168V208Z" fill="#182338"/>
<path d="M562 331H561V348H542V349H562V331Z" fill="#182338"/>
<rect x="495" y="376" width="17" height="1" fill="#182338"/>
<path d="M110 570H132V571H137V572H143V573H149V574H155V571H171V574V582H110V570Z" fill="#273552"/>
<path opacity="0.15" fill-rule="evenodd" clip-rule="evenodd" d="M371 34H313V156V174H217V118H186V136H163H101V171H125V208H56V165H11V326H45V333H68V326H157V341H203V315H206V390H250V364H262H302H308V375H366V322H358V319H390H402H429V278H479V281H448V320H496L505 303V281H493V278V258V242H519V229H522L531 248V302H565V331H589V279H641L675 311H701V288H698V200H701V175H658V150H591V139H587V133H618V92H530H524H478V132H371V34ZM402 300V258H429H454V217H428V169V156H371L353 174V213H313V203H289V255H268H250V275V340H262V316H302V340H308V322H343V319H326V278H390V300H402ZM568 133H530V117H524V156H478H446V169H519V211H522V203H542V150H563V139H568V133ZM186 159V174V203H268V240H227V255V275H206H203H178V208H145V171H163V159H186ZM126 258H68V286H126V258Z" fill="url(#paint0_linear)"/>
<path opacity="0.15" fill-rule="evenodd" clip-rule="evenodd" d="M443 413H425V470V494H574V470V460H597V455H600V464V471H589V505H501H446V567H377V550H362V570H286H273H222L217 565V536H180V518H192H227V483H239V459H227V439H192V497H180V479H110V536V582H171V601H222H273V595H286V605H283V679H299V680H328V682H347V683H377V598H446H501V542H641V505V464H643L611 424H600V441H597V436H551V460V470H443V413Z" fill="url(#paint1_linear)"/>
<path opacity="0.5" d="M613 212.108C613 209.839 614.839 208 617.108 208H637.892C640.161 208 642 206.161 642 203.892V179.108C642 176.839 643.839 175 646.108 175H696.892C699.161 175 701 176.839 701 179.108V198.5C701 199.328 700.328 200 699.5 200C698.672 200 698 200.672 698 201.5V286.5C698 287.328 698.672 288 699.5 288C700.328 288 701 288.672 701 289.5V306.892C701 309.161 699.161 311 696.892 311H676.629C675.583 311 674.576 310.601 673.814 309.883L642.186 280.117C641.424 279.399 640.417 279 639.371 279H617.108C614.839 279 613 277.161 613 274.892V212.108Z" fill="#4D5F83" fill-opacity="0.15" stroke="#4D5F83" stroke-width="1.64332" stroke-miterlimit="16"/>
<g opacity="0.15">
<mask id="mask0" mask-type="alpha" maskUnits="userSpaceOnUse" x="613" y="175" width="88" height="136">
<path d="M613 212.108C613 209.839 614.839 208 617.108 208H637.892C640.161 208 642 206.161 642 203.892V179.108C642 176.839 643.839 175 646.108 175H696.892C699.161 175 701 176.839 701 179.108V198.5C701 199.328 700.328 200 699.5 200C698.672 200 698 200.672 698 201.5V286.5C698 287.328 698.672 288 699.5 288C700.328 288 701 288.672 701 289.5V306.892C701 309.161 699.161 311 696.892 311H676.629C675.583 311 674.576 310.601 673.814 309.883L642.186 280.117C641.424 279.399 640.417 279 639.371 279H617.108C614.839 279 613 277.161 613 274.892V212.108Z" fill="#C4C4C4"/>
</mask>
<g mask="url(#mask0)">
<rect width="182.241" height="3.70032" transform="matrix(0.703677 -0.703134 0.703677 0.703134 647.301 358.814)" fill="#4D5F83"/>
<rect width="182.241" height="3.70032" transform="matrix(0.703676 -0.703134 0.703676 0.703134 642.094 353.611)" fill="#4D5F83"/>
<rect width="182.241" height="3.70032" transform="matrix(0.703676 -0.703134 0.703676 0.703134 636.886 348.406)" fill="#4D5F83"/>
<rect width="182.241" height="3.70032" transform="matrix(0.703676 -0.703134 0.703676 0.703134 631.678 343.203)" fill="#4D5F83"/>
<rect width="182.241" height="3.70032" transform="matrix(0.703676 -0.703134 0.703676 0.703134 626.471 337.999)" fill="#4D5F83"/>
<rect width="182.241" height="3.70032" transform="matrix(0.703676 -0.703134 0.703676 0.703134 621.263 332.796)" fill="#4D5F83"/>
<rect width="182.241" height="3.70032" transform="matrix(0.703676 -0.703134 0.703676 0.703134 616.055 327.592)" fill="#4D5F83"/>
<rect width="182.241" height="3.70032" transform="matrix(0.703676 -0.703134 0.703676 0.703134 610.848 322.389)" fill="#4D5F83"/>
<rect width="182.241" height="3.70032" transform="matrix(0.703676 -0.703134 0.703676 0.703134 605.64 317.186)" fill="#4D5F83"/>
<rect width="182.241" height="3.70032" transform="matrix(0.703676 -0.703134 0.703676 0.703134 600.433 311.982)" fill="#4D5F83"/>
<rect width="182.241" height="3.70032" transform="matrix(0.703676 -0.703134 0.703676 0.703134 595.225 306.778)" fill="#4D5F83"/>
<rect width="182.241" height="3.70032" transform="matrix(0.703676 -0.703134 0.703676 0.703134 590.017 301.575)" fill="#4D5F83"/>
<rect width="182.241" height="3.70032" transform="matrix(0.703676 -0.703134 0.703676 0.703134 584.809 296.371)" fill="#4D5F83"/>
<rect width="182.241" height="3.70032" transform="matrix(0.703677 -0.703134 0.703677 0.703134 579.602 291.167)" fill="#4D5F83"/>
<rect width="182.241" height="3.70032" transform="matrix(0.703677 -0.703134 0.703677 0.703134 574.395 285.963)" fill="#4D5F83"/>
<rect width="182.241" height="3.70032" transform="matrix(0.703676 -0.703134 0.703676 0.703134 569.186 280.759)" fill="#4D5F83"/>
<rect width="182.241" height="3.70032" transform="matrix(0.703676 -0.703134 0.703676 0.703134 563.979 275.556)" fill="#4D5F83"/>
<rect width="182.241" height="3.70032" transform="matrix(0.703676 -0.703134 0.703676 0.703134 558.771 270.353)" fill="#4D5F83"/>
<rect width="182.241" height="3.70032" transform="matrix(0.703676 -0.703134 0.703676 0.703134 553.564 265.149)" fill="#4D5F83"/>
<rect width="182.241" height="3.70032" transform="matrix(0.703676 -0.703134 0.703676 0.703134 548.356 259.945)" fill="#4D5F83"/>
<rect width="182.241" height="3.70032" transform="matrix(0.703676 -0.703134 0.703676 0.703134 543.147 254.742)" fill="#4D5F83"/>
</g>
</g>
<path d="M660.311 248L659.654 246.11H655.266L654.609 248H652.407L656.564 236.497H658.454L662.595 248H660.311ZM657.452 239.783L655.891 244.27H659.029L657.485 239.783H657.452Z" fill="#E5EBEF"/>
<rect opacity="0.5" x="82" y="208" width="86" height="50" rx="4.1083" fill="#4D5F83" fill-opacity="0.15" stroke="#4D5F83" stroke-width="1.64332" stroke-miterlimit="16"/>
<g opacity="0.15">
<mask id="mask1" mask-type="alpha" maskUnits="userSpaceOnUse" x="82" y="208" width="86" height="50">
<rect x="82" y="208" width="86" height="50" rx="4.1083" fill="#C4C4C4"/>
</mask>
<g mask="url(#mask1)">
<rect width="182.241" height="3.70032" transform="matrix(0.703677 -0.703134 0.703677 0.703134 114.28 367.967)" fill="#4D5F83"/>
<rect width="182.241" height="3.70032" transform="matrix(0.703676 -0.703134 0.703676 0.703134 109.073 362.763)" fill="#4D5F83"/>
<rect width="182.241" height="3.70032" transform="matrix(0.703676 -0.703134 0.703676 0.703134 103.865 357.559)" fill="#4D5F83"/>
<rect width="182.241" height="3.70032" transform="matrix(0.703676 -0.703134 0.703676 0.703134 98.6575 352.356)" fill="#4D5F83"/>
<rect width="182.241" height="3.70032" transform="matrix(0.703676 -0.703134 0.703676 0.703134 93.45 347.152)" fill="#4D5F83"/>
<rect width="182.241" height="3.70032" transform="matrix(0.703676 -0.703134 0.703676 0.703134 88.2424 341.948)" fill="#4D5F83"/>
<rect width="182.241" height="3.70032" transform="matrix(0.703676 -0.703134 0.703676 0.703134 83.0344 336.745)" fill="#4D5F83"/>
<rect width="182.241" height="3.70032" transform="matrix(0.703676 -0.703134 0.703676 0.703134 77.8271 331.541)" fill="#4D5F83"/>
<rect width="182.241" height="3.70032" transform="matrix(0.703676 -0.703134 0.703676 0.703134 72.6194 326.338)" fill="#4D5F83"/>
<rect width="182.241" height="3.70032" transform="matrix(0.703676 -0.703134 0.703676 0.703134 67.4119 321.134)" fill="#4D5F83"/>
<rect width="182.241" height="3.70032" transform="matrix(0.703676 -0.703134 0.703676 0.703134 62.2039 315.93)" fill="#4D5F83"/>
<rect width="182.241" height="3.70032" transform="matrix(0.703676 -0.703134 0.703676 0.703134 56.9963 310.727)" fill="#4D5F83"/>
<rect width="182.241" height="3.70032" transform="matrix(0.703676 -0.703134 0.703676 0.703134 51.7883 305.523)" fill="#4D5F83"/>
<rect width="182.241" height="3.70032" transform="matrix(0.703676 -0.703134 0.703676 0.703134 46.5808 300.319)" fill="#4D5F83"/>
<rect width="182.241" height="3.70032" transform="matrix(0.703676 -0.703134 0.703676 0.703134 41.3735 295.115)" fill="#4D5F83"/>
<rect width="182.241" height="3.70032" transform="matrix(0.703676 -0.703134 0.703676 0.703134 36.1653 289.912)" fill="#4D5F83"/>
<rect width="182.241" height="3.70032" transform="matrix(0.703676 -0.703134 0.703676 0.703134 30.9583 284.708)" fill="#4D5F83"/>
<rect width="182.241" height="3.70032" transform="matrix(0.703676 -0.703134 0.703676 0.703134 25.7498 279.505)" fill="#4D5F83"/>
<rect width="182.241" height="3.70032" transform="matrix(0.703676 -0.703134 0.703676 0.703134 20.5432 274.301)" fill="#4D5F83"/>
<rect width="182.241" height="3.70032" transform="matrix(0.703676 -0.703134 0.703676 0.703134 15.3354 269.097)" fill="#4D5F83"/>
<rect width="182.241" height="3.70032" transform="matrix(0.703676 -0.703134 0.703676 0.703134 10.127 263.894)" fill="#4D5F83"/>
</g>
</g>
<path d="M121.479 238V226.497H126.359C127.378 226.497 128.194 226.798 128.808 227.401C129.432 227.992 129.745 228.721 129.745 229.586C129.745 230.55 129.328 231.279 128.496 231.772V231.788C128.989 231.996 129.389 232.331 129.695 232.791C130.013 233.24 130.172 233.782 130.172 234.418C130.172 235.513 129.838 236.39 129.169 237.047C128.501 237.682 127.4 238 125.866 238H121.479ZM123.697 235.946H126.376C127.427 235.946 127.953 235.436 127.953 234.418C127.953 233.946 127.811 233.585 127.526 233.333C127.252 233.07 126.874 232.939 126.392 232.939H123.697V235.946ZM123.697 231.131H126.08C126.529 231.131 126.88 231.027 127.132 230.819C127.395 230.6 127.526 230.282 127.526 229.866C127.526 229.427 127.4 229.099 127.148 228.88C126.896 228.66 126.54 228.551 126.08 228.551H123.697V231.131Z" fill="#E5EBEF"/>
<path d="M308.436 637L307.916 635.505H304.445L303.925 637H302.183L305.472 627.9H306.967L310.243 637H308.436ZM306.174 630.5L304.939 634.049H307.422L306.2 630.5H306.174ZM311.314 634.543V631.54H310.248V630.11H311.353V628.42H312.952V630.11H314.694V631.54H312.978V634.387C312.978 634.751 313.038 635.007 313.16 635.154C313.281 635.301 313.528 635.375 313.901 635.375H314.46V637H313.745C312.817 637 312.18 636.805 311.834 636.415C311.487 636.025 311.314 635.401 311.314 634.543ZM316.214 634.543V631.54H315.148V630.11H316.253V628.42H317.852V630.11H319.594V631.54H317.878V634.387C317.878 634.751 317.939 635.007 318.06 635.154C318.181 635.301 318.428 635.375 318.801 635.375H319.36V637H318.645C317.718 637 317.081 636.805 316.734 636.415C316.387 636.025 316.214 635.401 316.214 634.543ZM324.69 637V636.337H324.664C324.646 636.363 324.625 636.398 324.599 636.441C324.573 636.476 324.508 636.541 324.404 636.636C324.3 636.731 324.183 636.818 324.053 636.896C323.923 636.974 323.745 637.043 323.52 637.104C323.294 637.165 323.052 637.195 322.792 637.195C321.96 637.195 321.336 637 320.92 636.61C320.512 636.211 320.309 635.726 320.309 635.154C320.309 634.556 320.486 634.101 320.842 633.789C321.197 633.477 321.799 633.217 322.649 633.009C323.437 632.818 323.931 632.667 324.131 632.554C324.33 632.441 324.43 632.281 324.43 632.073C324.43 631.865 324.33 631.692 324.131 631.553C323.94 631.414 323.65 631.345 323.26 631.345C322.8 631.345 322.471 631.449 322.272 631.657C322.072 631.856 321.916 632.129 321.804 632.476L320.4 631.891C320.564 631.31 320.885 630.838 321.362 630.474C321.838 630.101 322.462 629.915 323.234 629.915C324.074 629.915 324.763 630.136 325.301 630.578C325.838 631.02 326.107 631.705 326.107 632.632V637H324.69ZM322.987 634.179C322.553 634.283 322.267 634.409 322.129 634.556C321.999 634.695 321.934 634.855 321.934 635.037C321.934 635.505 322.272 635.739 322.948 635.739C323.459 635.739 323.84 635.644 324.092 635.453C324.352 635.254 324.482 635.011 324.482 634.725V633.529H324.456C324.421 633.598 324.382 633.655 324.339 633.698C324.304 633.733 324.174 633.798 323.949 633.893C323.723 633.98 323.403 634.075 322.987 634.179ZM331.931 634.218L333.53 634.634C333.374 635.457 333.036 636.09 332.516 636.532C331.996 636.974 331.341 637.195 330.553 637.195C329.617 637.195 328.845 636.874 328.239 636.233C327.641 635.592 327.342 634.699 327.342 633.555C327.342 632.42 327.649 631.531 328.265 630.89C328.889 630.24 329.656 629.915 330.566 629.915C331.337 629.915 331.983 630.14 332.503 630.591C333.023 631.042 333.343 631.644 333.465 632.398L331.892 632.697C331.727 631.856 331.285 631.436 330.566 631.436C330.089 631.436 329.708 631.618 329.422 631.982C329.144 632.337 329.006 632.862 329.006 633.555C329.006 634.248 329.144 634.777 329.422 635.141C329.699 635.496 330.08 635.674 330.566 635.674C331.328 635.674 331.783 635.189 331.931 634.218ZM334.83 637V627.51H336.52V632.957H336.546L339.055 630.11H341.174L338.691 632.905L341.395 637H339.523L337.417 633.854H337.391L336.52 634.842V637H334.83ZM346.526 634.621L347.709 635.661C347.007 636.684 346.058 637.195 344.862 637.195C343.9 637.195 343.115 636.866 342.509 636.207C341.902 635.54 341.599 634.656 341.599 633.555C341.599 632.454 341.898 631.575 342.496 630.916C343.102 630.249 343.865 629.915 344.784 629.915C345.702 629.915 346.456 630.249 347.046 630.916C347.644 631.575 347.943 632.454 347.943 633.555V634.062H343.315C343.341 634.591 343.484 634.998 343.744 635.284C344.012 635.561 344.376 635.7 344.836 635.7C345.226 635.7 345.546 635.605 345.798 635.414C346.058 635.215 346.3 634.95 346.526 634.621ZM343.315 632.801H346.305C346.261 632.359 346.11 632.017 345.85 631.774C345.59 631.523 345.234 631.397 344.784 631.397C344.368 631.397 344.025 631.531 343.757 631.8C343.497 632.069 343.349 632.402 343.315 632.801ZM349.303 637V630.11H350.902V630.838H350.928C351.058 630.578 351.248 630.37 351.5 630.214C351.76 630.058 352.041 629.98 352.345 629.98C352.561 629.98 352.769 630.023 352.969 630.11L352.709 631.748C352.518 631.679 352.34 631.644 352.176 631.644C351.387 631.644 350.993 632.168 350.993 633.217V637H349.303ZM353.556 634.725L355.077 634.335C355.198 635.297 355.714 635.778 356.624 635.778C357.04 635.778 357.369 635.713 357.612 635.583C357.863 635.444 357.989 635.254 357.989 635.011C357.989 634.812 357.894 634.664 357.703 634.569C357.512 634.465 357.114 634.326 356.507 634.153C356.342 634.11 356.217 634.075 356.13 634.049C355.333 633.824 354.748 633.559 354.375 633.256C354.002 632.944 353.816 632.532 353.816 632.021C353.816 631.449 354.046 630.955 354.505 630.539C354.973 630.123 355.61 629.915 356.416 629.915C357.959 629.915 358.925 630.591 359.315 631.943L357.911 632.372C357.79 632.043 357.616 631.783 357.391 631.592C357.174 631.401 356.854 631.306 356.429 631.306C356.1 631.306 355.835 631.371 355.636 631.501C355.445 631.622 355.35 631.77 355.35 631.943C355.35 632.134 355.463 632.285 355.688 632.398C355.922 632.502 356.498 632.684 357.417 632.944C358.223 633.161 358.769 633.438 359.055 633.776C359.35 634.105 359.497 634.53 359.497 635.05C359.497 635.605 359.254 636.103 358.769 636.545C358.292 636.978 357.599 637.195 356.689 637.195C355.736 637.195 354.999 636.957 354.479 636.48C353.968 635.995 353.66 635.41 353.556 634.725Z" fill="#FF5859"/>
<path d="M124.489 528V521.098H127.418C128.029 521.098 128.519 521.279 128.887 521.64C129.261 521.995 129.449 522.432 129.449 522.952C129.449 523.53 129.199 523.967 128.699 524.263V524.273C128.995 524.398 129.235 524.598 129.419 524.874C129.61 525.144 129.705 525.469 129.705 525.851C129.705 526.508 129.505 527.034 129.104 527.428C128.703 527.809 128.042 528 127.122 528H124.489ZM125.82 526.768H127.427C128.059 526.768 128.374 526.462 128.374 525.851C128.374 525.568 128.289 525.351 128.118 525.2C127.953 525.042 127.727 524.963 127.437 524.963H125.82V526.768ZM125.82 523.879H127.25C127.519 523.879 127.73 523.816 127.881 523.691C128.039 523.56 128.118 523.369 128.118 523.119C128.118 522.856 128.042 522.659 127.891 522.528C127.74 522.396 127.526 522.331 127.25 522.331H125.82V523.879ZM133.357 528V521.098H134.688V526.768H137.538V528H133.357ZM139.604 526.58C139.815 526.856 140.104 526.994 140.472 526.994C140.84 526.994 141.129 526.856 141.34 526.58C141.55 526.298 141.655 525.9 141.655 525.387C141.655 524.874 141.547 524.48 141.33 524.204C141.119 523.921 140.833 523.78 140.472 523.78C140.11 523.78 139.821 523.918 139.604 524.194C139.394 524.47 139.289 524.868 139.289 525.387C139.289 525.906 139.394 526.304 139.604 526.58ZM142.227 527.418C141.767 527.905 141.182 528.148 140.472 528.148C139.762 528.148 139.177 527.905 138.717 527.418C138.257 526.932 138.027 526.255 138.027 525.387C138.027 524.533 138.263 523.859 138.736 523.366C139.21 522.873 139.788 522.626 140.472 522.626C141.155 522.626 141.734 522.873 142.207 523.366C142.68 523.859 142.917 524.533 142.917 525.387C142.917 526.255 142.687 526.932 142.227 527.418ZM145.238 524.904V525.86C145.238 526.176 145.337 526.445 145.534 526.669C145.738 526.886 146.014 526.994 146.362 526.994C146.737 526.994 147.026 526.86 147.23 526.59C147.44 526.314 147.545 525.913 147.545 525.387C147.545 524.855 147.44 524.454 147.23 524.184C147.026 523.915 146.737 523.78 146.362 523.78C146.014 523.78 145.738 523.888 145.534 524.105C145.337 524.322 145.238 524.588 145.238 524.904ZM143.956 528V520.802H145.238V523.277H145.258C145.271 523.257 145.287 523.234 145.307 523.208C145.327 523.175 145.376 523.123 145.455 523.05C145.541 522.978 145.629 522.912 145.721 522.853C145.82 522.794 145.945 522.741 146.096 522.695C146.254 522.649 146.418 522.626 146.589 522.626C147.233 522.626 147.766 522.883 148.186 523.395C148.614 523.902 148.827 524.565 148.827 525.387C148.827 526.229 148.62 526.899 148.206 527.399C147.798 527.898 147.25 528.148 146.559 528.148C146.277 528.148 146.02 528.095 145.79 527.99C145.56 527.878 145.403 527.77 145.317 527.665L145.179 527.497H145.159V528H143.956ZM151.141 524.904V525.86C151.141 526.176 151.239 526.445 151.436 526.669C151.64 526.886 151.916 526.994 152.265 526.994C152.639 526.994 152.929 526.86 153.132 526.59C153.343 526.314 153.448 525.913 153.448 525.387C153.448 524.855 153.343 524.454 153.132 524.184C152.929 523.915 152.639 523.78 152.265 523.78C151.916 523.78 151.64 523.888 151.436 524.105C151.239 524.322 151.141 524.588 151.141 524.904ZM149.859 528V520.802H151.141V523.277H151.16C151.174 523.257 151.19 523.234 151.21 523.208C151.229 523.175 151.279 523.123 151.358 523.05C151.443 522.978 151.532 522.912 151.624 522.853C151.722 522.794 151.847 522.741 151.998 522.695C152.156 522.649 152.321 522.626 152.491 522.626C153.136 522.626 153.668 522.883 154.089 523.395C154.516 523.902 154.73 524.565 154.73 525.387C154.73 526.229 154.523 526.899 154.108 527.399C153.701 527.898 153.152 528.148 152.462 528.148C152.179 528.148 151.923 528.095 151.693 527.99C151.463 527.878 151.305 527.77 151.22 527.665L151.081 527.497H151.062V528H149.859ZM155.973 530.218L157.018 527.744L154.928 522.774H156.229L157.58 526.314H157.6L158.951 522.774H160.252L157.245 530.218H155.973Z" fill="#7986A3"/>
<path d="M202.726 473V466.098H205.654C206.266 466.098 206.755 466.279 207.123 466.64C207.498 466.995 207.685 467.432 207.685 467.952C207.685 468.53 207.436 468.967 206.936 469.263V469.273C207.232 469.398 207.472 469.598 207.656 469.874C207.846 470.144 207.942 470.469 207.942 470.851C207.942 471.508 207.741 472.034 207.34 472.428C206.939 472.809 206.279 473 205.358 473H202.726ZM204.057 471.768H205.664C206.295 471.768 206.611 471.462 206.611 470.851C206.611 470.568 206.525 470.351 206.354 470.2C206.19 470.042 205.963 469.963 205.674 469.963H204.057V471.768ZM204.057 468.879H205.487C205.756 468.879 205.967 468.816 206.118 468.691C206.275 468.56 206.354 468.369 206.354 468.119C206.354 467.856 206.279 467.659 206.128 467.528C205.976 467.396 205.763 467.331 205.487 467.331H204.057V468.879ZM211.594 473V466.098H212.925V471.768H215.775V473H211.594ZM216.608 473V467.774H217.89V473H216.608ZM216.608 467.015V465.802H217.89V467.015H216.608ZM219.266 473V467.774H220.498V468.277H220.518C220.663 468.093 220.86 467.939 221.11 467.814C221.359 467.689 221.622 467.626 221.899 467.626C222.477 467.626 222.931 467.801 223.259 468.149C223.588 468.491 223.752 468.967 223.752 469.579V473H222.47V469.894C222.47 469.533 222.401 469.263 222.263 469.086C222.125 468.902 221.889 468.81 221.553 468.81C221.238 468.81 220.991 468.902 220.814 469.086C220.636 469.263 220.548 469.503 220.548 469.805V473H219.266ZM225.082 473V465.802H226.364V469.934H226.383L228.286 467.774H229.893L228.01 469.894L230.061 473H228.641L227.044 470.614H227.024L226.364 471.363V473H225.082Z" fill="#7986A3"/>
<path d="M303.285 473V466.098H306.214C306.825 466.098 307.315 466.279 307.683 466.64C308.058 466.995 308.245 467.432 308.245 467.952C308.245 468.53 307.995 468.967 307.496 469.263V469.273C307.791 469.398 308.031 469.598 308.215 469.874C308.406 470.144 308.501 470.469 308.501 470.851C308.501 471.508 308.301 472.034 307.9 472.428C307.499 472.809 306.838 473 305.918 473H303.285ZM304.617 471.768H306.224C306.855 471.768 307.17 471.462 307.17 470.851C307.17 470.568 307.085 470.351 306.914 470.2C306.75 470.042 306.523 469.963 306.234 469.963H304.617V471.768ZM304.617 468.879H306.046C306.316 468.879 306.526 468.816 306.677 468.691C306.835 468.56 306.914 468.369 306.914 468.119C306.914 467.856 306.838 467.659 306.687 467.528C306.536 467.396 306.322 467.331 306.046 467.331H304.617V468.879ZM310.823 471.58C311.033 471.856 311.322 471.994 311.69 471.994C312.058 471.994 312.348 471.856 312.558 471.58C312.768 471.298 312.873 470.9 312.873 470.387C312.873 469.874 312.765 469.48 312.548 469.204C312.338 468.921 312.052 468.78 311.69 468.78C311.329 468.78 311.039 468.918 310.823 469.194C310.612 469.47 310.507 469.868 310.507 470.387C310.507 470.906 310.612 471.304 310.823 471.58ZM313.445 472.418C312.985 472.905 312.4 473.148 311.69 473.148C310.98 473.148 310.395 472.905 309.935 472.418C309.475 471.932 309.245 471.255 309.245 470.387C309.245 469.533 309.482 468.859 309.955 468.366C310.428 467.873 311.007 467.626 311.69 467.626C312.374 467.626 312.952 467.873 313.426 468.366C313.899 468.859 314.135 469.533 314.135 470.387C314.135 471.255 313.905 471.932 313.445 472.418ZM315.441 471.136V468.859H314.632V467.774H315.471V466.492H316.683V467.774H318.005V468.859H316.703V471.018C316.703 471.294 316.749 471.488 316.841 471.6C316.933 471.712 317.12 471.768 317.403 471.768H317.827V473H317.285C316.581 473 316.098 472.852 315.835 472.556C315.572 472.261 315.441 471.787 315.441 471.136ZM319.158 471.136V468.859H318.349V467.774H319.187V466.492H320.4V467.774H321.721V468.859H320.42V471.018C320.42 471.294 320.466 471.488 320.558 471.6C320.65 471.712 320.837 471.768 321.12 471.768H321.544V473H321.001C320.298 473 319.815 472.852 319.552 472.556C319.289 472.261 319.158 471.787 319.158 471.136ZM323.937 471.58C324.147 471.856 324.437 471.994 324.805 471.994C325.173 471.994 325.462 471.856 325.672 471.58C325.883 471.298 325.988 470.9 325.988 470.387C325.988 469.874 325.879 469.48 325.662 469.204C325.452 468.921 325.166 468.78 324.805 468.78C324.443 468.78 324.154 468.918 323.937 469.194C323.727 469.47 323.621 469.868 323.621 470.387C323.621 470.906 323.727 471.304 323.937 471.58ZM326.56 472.418C326.1 472.905 325.515 473.148 324.805 473.148C324.095 473.148 323.51 472.905 323.05 472.418C322.589 471.932 322.359 471.255 322.359 470.387C322.359 469.533 322.596 468.859 323.069 468.366C323.543 467.873 324.121 467.626 324.805 467.626C325.488 467.626 326.067 467.873 326.54 468.366C327.013 468.859 327.25 469.533 327.25 470.387C327.25 471.255 327.02 471.932 326.56 472.418ZM328.289 473V467.774H329.463V468.277H329.482C329.601 468.093 329.771 467.939 329.995 467.814C330.225 467.689 330.475 467.626 330.744 467.626C331.02 467.626 331.28 467.692 331.523 467.824C331.766 467.948 331.951 468.113 332.075 468.317H332.095C332.227 468.113 332.414 467.948 332.657 467.824C332.9 467.692 333.167 467.626 333.456 467.626C334.08 467.626 334.573 467.791 334.935 468.119C335.303 468.448 335.487 468.882 335.487 469.421V473H334.314V469.687C334.314 469.431 334.238 469.22 334.087 469.056C333.942 468.892 333.715 468.81 333.406 468.81C333.117 468.81 332.894 468.885 332.736 469.036C332.585 469.187 332.509 469.381 332.509 469.618V473H331.336V469.687C331.336 469.437 331.257 469.23 331.099 469.066C330.942 468.895 330.718 468.81 330.429 468.81C330.133 468.81 329.91 468.885 329.758 469.036C329.607 469.187 329.532 469.381 329.532 469.618V473H328.289ZM339.384 473V466.098H340.754L342.756 470.574H342.776L344.777 466.098H346.158V473H344.856V468.76H344.836L342.874 473H342.657L340.695 468.76H340.676V473H339.384ZM347.634 473V467.774H348.915V473H347.634ZM347.634 467.015V465.802H348.915V467.015H347.634ZM353.535 470.86V469.904C353.535 469.588 353.433 469.322 353.229 469.105C353.032 468.888 352.759 468.78 352.411 468.78C352.036 468.78 351.744 468.915 351.533 469.184C351.33 469.454 351.228 469.855 351.228 470.387C351.228 470.913 351.33 471.314 351.533 471.59C351.744 471.86 352.036 471.994 352.411 471.994C352.759 471.994 353.032 471.886 353.229 471.669C353.433 471.445 353.535 471.176 353.535 470.86ZM353.614 473V472.497H353.594C353.561 472.543 353.512 472.602 353.446 472.675C353.387 472.747 353.236 472.846 352.993 472.97C352.756 473.089 352.496 473.148 352.214 473.148C351.524 473.148 350.971 472.898 350.557 472.399C350.15 471.899 349.946 471.229 349.946 470.387C349.946 469.539 350.169 468.869 350.616 468.376C351.063 467.876 351.589 467.626 352.194 467.626C352.47 467.626 352.717 467.682 352.934 467.794C353.157 467.899 353.308 468.004 353.387 468.109L353.515 468.277H353.535V465.802H354.817V473H353.614Z" fill="#7986A3"/>
<path d="M483.247 487L482.852 485.866H480.22L479.825 487H478.504L480.999 480.098H482.133L484.617 487H483.247ZM481.531 482.07L480.594 484.762H482.478L481.551 482.07H481.531ZM487.476 484.693L488.876 484.387C488.961 484.926 489.099 485.317 489.29 485.56C489.487 485.797 489.806 485.915 490.246 485.915C490.621 485.915 490.92 485.85 491.143 485.718C491.367 485.58 491.479 485.38 491.479 485.117C491.479 484.841 491.37 484.63 491.153 484.486C490.943 484.335 490.457 484.141 489.694 483.904C488.978 483.68 488.468 483.411 488.166 483.095C487.87 482.773 487.722 482.379 487.722 481.912C487.722 481.373 487.929 480.913 488.343 480.532C488.764 480.144 489.333 479.95 490.049 479.95C490.7 479.95 491.258 480.108 491.725 480.423C492.198 480.739 492.494 481.209 492.613 481.833L491.321 482.159C491.117 481.508 490.693 481.183 490.049 481.183C489.707 481.183 489.451 481.248 489.28 481.38C489.116 481.511 489.033 481.686 489.033 481.902C489.033 482.106 489.129 482.264 489.319 482.376C489.51 482.481 490 482.668 490.788 482.938C491.551 483.201 492.074 483.487 492.356 483.796C492.639 484.098 492.78 484.509 492.78 485.028C492.78 485.639 492.55 486.145 492.09 486.546C491.63 486.947 491.015 487.148 490.246 487.148C489.464 487.148 488.83 486.944 488.343 486.537C487.863 486.122 487.574 485.508 487.476 484.693ZM497.105 485.196L498.003 485.984C497.47 486.76 496.75 487.148 495.843 487.148C495.114 487.148 494.519 486.898 494.059 486.399C493.598 485.892 493.368 485.222 493.368 484.387C493.368 483.552 493.595 482.885 494.049 482.386C494.509 481.879 495.087 481.626 495.784 481.626C496.481 481.626 497.053 481.879 497.5 482.386C497.953 482.885 498.18 483.552 498.18 484.387V484.772H494.67C494.69 485.173 494.798 485.482 494.995 485.698C495.199 485.909 495.475 486.014 495.824 486.014C496.119 486.014 496.363 485.942 496.553 485.797C496.75 485.646 496.934 485.445 497.105 485.196ZM494.67 483.815H496.938C496.905 483.48 496.79 483.22 496.593 483.036C496.395 482.846 496.126 482.75 495.784 482.75C495.469 482.75 495.209 482.852 495.005 483.056C494.808 483.26 494.696 483.513 494.67 483.815ZM499.971 487L498.817 481.774H500.069L500.76 485.265H500.789L501.953 481.774H503.116L504.191 485.255H504.211L504.999 481.774H506.232L504.98 487H503.718L502.524 483.243H502.505L501.213 487H499.971ZM510.509 485.196L511.406 485.984C510.873 486.76 510.154 487.148 509.247 487.148C508.517 487.148 507.922 486.898 507.462 486.399C507.002 485.892 506.772 485.222 506.772 484.387C506.772 483.552 506.998 482.885 507.452 482.386C507.912 481.879 508.491 481.626 509.187 481.626C509.884 481.626 510.456 481.879 510.903 482.386C511.357 482.885 511.583 483.552 511.583 484.387V484.772H508.073C508.093 485.173 508.201 485.482 508.399 485.698C508.602 485.909 508.878 486.014 509.227 486.014C509.523 486.014 509.766 485.942 509.956 485.797C510.154 485.646 510.338 485.445 510.509 485.196ZM508.073 483.815H510.341C510.308 483.48 510.193 483.22 509.996 483.036C509.799 482.846 509.529 482.75 509.187 482.75C508.872 482.75 508.612 482.852 508.408 483.056C508.211 483.26 508.1 483.513 508.073 483.815ZM512.615 487V481.774H513.828V482.326H513.847C513.946 482.129 514.091 481.971 514.281 481.853C514.478 481.735 514.692 481.676 514.922 481.676C515.086 481.676 515.244 481.709 515.395 481.774L515.198 483.017C515.054 482.964 514.919 482.938 514.794 482.938C514.196 482.938 513.897 483.335 513.897 484.131V487H512.615Z" fill="#7986A3"/>
<path d="M602.589 494L602.194 492.866H599.562L599.167 494H597.846L600.341 487.098H601.474L603.959 494H602.589ZM600.873 489.07L599.936 491.762H601.82L600.893 489.07H600.873ZM607.261 494V487.098H608.592V492.768H611.442V494H607.261ZM613.508 492.58C613.718 492.856 614.007 492.994 614.376 492.994C614.744 492.994 615.033 492.856 615.243 492.58C615.454 492.298 615.559 491.9 615.559 491.387C615.559 490.874 615.45 490.48 615.233 490.204C615.023 489.921 614.737 489.78 614.376 489.78C614.014 489.78 613.725 489.918 613.508 490.194C613.298 490.47 613.192 490.868 613.192 491.387C613.192 491.906 613.298 492.304 613.508 492.58ZM616.131 493.418C615.67 493.905 615.085 494.148 614.376 494.148C613.666 494.148 613.081 493.905 612.62 493.418C612.16 492.932 611.93 492.255 611.93 491.387C611.93 490.533 612.167 489.859 612.64 489.366C613.113 488.873 613.692 488.626 614.376 488.626C615.059 488.626 615.638 488.873 616.111 489.366C616.584 489.859 616.821 490.533 616.821 491.387C616.821 492.255 616.591 492.932 616.131 493.418ZM619.142 490.904V491.86C619.142 492.176 619.24 492.445 619.438 492.669C619.641 492.886 619.918 492.994 620.266 492.994C620.641 492.994 620.93 492.86 621.134 492.59C621.344 492.314 621.449 491.913 621.449 491.387C621.449 490.855 621.344 490.454 621.134 490.184C620.93 489.915 620.641 489.78 620.266 489.78C619.918 489.78 619.641 489.888 619.438 490.105C619.24 490.322 619.142 490.588 619.142 490.904ZM617.86 494V486.802H619.142V489.277H619.162C619.175 489.257 619.191 489.234 619.211 489.208C619.231 489.175 619.28 489.123 619.359 489.05C619.444 488.978 619.533 488.912 619.625 488.853C619.724 488.794 619.849 488.741 620 488.695C620.157 488.649 620.322 488.626 620.493 488.626C621.137 488.626 621.669 488.883 622.09 489.395C622.517 489.902 622.731 490.565 622.731 491.387C622.731 492.229 622.524 492.899 622.11 493.399C621.702 493.898 621.153 494.148 620.463 494.148C620.18 494.148 619.924 494.095 619.694 493.99C619.464 493.878 619.306 493.77 619.221 493.665L619.083 493.497H619.063V494H617.86ZM625.044 490.904V491.86C625.044 492.176 625.143 492.445 625.34 492.669C625.544 492.886 625.82 492.994 626.168 492.994C626.543 492.994 626.832 492.86 627.036 492.59C627.246 492.314 627.352 491.913 627.352 491.387C627.352 490.855 627.246 490.454 627.036 490.184C626.832 489.915 626.543 489.78 626.168 489.78C625.82 489.78 625.544 489.888 625.34 490.105C625.143 490.322 625.044 490.588 625.044 490.904ZM623.763 494V486.802H625.044V489.277H625.064C625.077 489.257 625.094 489.234 625.113 489.208C625.133 489.175 625.182 489.123 625.261 489.05C625.347 488.978 625.435 488.912 625.527 488.853C625.626 488.794 625.751 488.741 625.902 488.695C626.06 488.649 626.224 488.626 626.395 488.626C627.039 488.626 627.572 488.883 627.992 489.395C628.42 489.902 628.633 490.565 628.633 491.387C628.633 492.229 628.426 492.899 628.012 493.399C627.605 493.898 627.056 494.148 626.366 494.148C626.083 494.148 625.827 494.095 625.597 493.99C625.366 493.878 625.209 493.77 625.123 493.665L624.985 493.497H624.965V494H623.763ZM629.877 496.218L630.922 493.744L628.832 488.774H630.133L631.484 492.314H631.504L632.854 488.774H634.156L631.149 496.218H629.877Z" fill="#7986A3"/>
<path d="M553.376 371L552.982 369.866H550.349L549.955 371H548.634L551.128 364.098H552.262L554.747 371H553.376ZM551.661 366.07L550.724 368.762H552.607L551.68 366.07H551.661ZM558.049 371V364.098H559.419L561.421 368.574H561.44L563.442 364.098H564.822V371H563.521V366.76H563.501L561.539 371H561.322L559.36 366.76H559.34V371H558.049ZM569.276 371V370.497H569.256C569.243 370.517 569.227 370.543 569.207 370.576C569.187 370.602 569.138 370.652 569.059 370.724C568.98 370.796 568.891 370.862 568.793 370.921C568.694 370.98 568.559 371.033 568.389 371.079C568.218 371.125 568.034 371.148 567.836 371.148C567.205 371.148 566.732 371 566.417 370.704C566.108 370.402 565.953 370.034 565.953 369.6C565.953 369.146 566.088 368.801 566.357 368.565C566.627 368.328 567.084 368.131 567.728 367.973C568.326 367.828 568.701 367.713 568.852 367.628C569.003 367.542 569.079 367.421 569.079 367.263C569.079 367.105 569.003 366.974 568.852 366.869C568.707 366.764 568.487 366.711 568.191 366.711C567.843 366.711 567.593 366.79 567.442 366.948C567.291 367.099 567.172 367.306 567.087 367.569L566.022 367.125C566.147 366.685 566.39 366.326 566.752 366.05C567.113 365.768 567.587 365.626 568.172 365.626C568.809 365.626 569.332 365.794 569.739 366.129C570.147 366.464 570.351 366.984 570.351 367.687V371H569.276ZM567.984 368.86C567.656 368.939 567.439 369.035 567.333 369.146C567.235 369.252 567.186 369.373 567.186 369.511C567.186 369.866 567.442 370.044 567.955 370.044C568.342 370.044 568.632 369.971 568.822 369.827C569.02 369.675 569.118 369.491 569.118 369.275V368.367H569.098C569.072 368.42 569.043 368.463 569.01 368.496C568.983 368.522 568.885 368.571 568.714 368.643C568.543 368.709 568.3 368.782 567.984 368.86ZM571.633 371V365.774H572.914V371H571.633ZM571.633 365.015V363.802H572.914V365.015H571.633ZM574.29 371V365.774H575.523V366.277H575.542C575.687 366.093 575.884 365.939 576.134 365.814C576.384 365.689 576.647 365.626 576.923 365.626C577.501 365.626 577.955 365.801 578.283 366.149C578.612 366.491 578.776 366.967 578.776 367.579V371H577.495V367.894C577.495 367.533 577.426 367.263 577.288 367.086C577.15 366.902 576.913 366.81 576.578 366.81C576.262 366.81 576.016 366.902 575.838 367.086C575.661 367.263 575.572 367.503 575.572 367.805V371H574.29Z" fill="#7986A3"/>
<path d="M466.383 368L465.989 366.866H463.356L462.962 368H461.64L464.135 361.098H465.269L467.754 368H466.383ZM464.667 363.07L463.731 365.762H465.614L464.687 363.07H464.667ZM471.055 368V361.098H473.856C474.566 361.098 475.137 361.299 475.571 361.7C476.012 362.094 476.232 362.626 476.232 363.297C476.232 363.796 476.1 364.22 475.838 364.569C475.581 364.917 475.226 365.164 474.773 365.308L476.242 368H474.802L473.412 365.436H472.387V368H471.055ZM472.387 364.283H473.747C474.503 364.283 474.881 363.954 474.881 363.297C474.881 362.633 474.503 362.301 473.747 362.301H472.387V364.283ZM480.203 368V367.497H480.183C480.17 367.517 480.154 367.543 480.134 367.576C480.114 367.602 480.065 367.652 479.986 367.724C479.907 367.796 479.818 367.862 479.72 367.921C479.621 367.98 479.486 368.033 479.316 368.079C479.145 368.125 478.961 368.148 478.763 368.148C478.132 368.148 477.659 368 477.344 367.704C477.035 367.402 476.88 367.034 476.88 366.6C476.88 366.146 477.015 365.801 477.284 365.565C477.554 365.328 478.011 365.131 478.655 364.973C479.253 364.828 479.628 364.713 479.779 364.628C479.93 364.542 480.006 364.421 480.006 364.263C480.006 364.105 479.93 363.974 479.779 363.869C479.634 363.764 479.414 363.711 479.118 363.711C478.77 363.711 478.52 363.79 478.369 363.948C478.218 364.099 478.099 364.306 478.014 364.569L476.949 364.125C477.074 363.685 477.317 363.326 477.679 363.05C478.04 362.768 478.514 362.626 479.099 362.626C479.736 362.626 480.259 362.794 480.666 363.129C481.074 363.464 481.278 363.984 481.278 364.687V368H480.203ZM478.911 365.86C478.583 365.939 478.366 366.035 478.261 366.146C478.162 366.252 478.113 366.373 478.113 366.511C478.113 366.866 478.369 367.044 478.882 367.044C479.27 367.044 479.559 366.971 479.749 366.827C479.947 366.675 480.045 366.491 480.045 366.275V365.367H480.025C479.999 365.42 479.97 365.463 479.937 365.496C479.91 365.522 479.812 365.571 479.641 365.643C479.47 365.709 479.227 365.782 478.911 365.86ZM482.56 368V362.774H483.733V363.277H483.753C483.871 363.093 484.042 362.939 484.265 362.814C484.495 362.689 484.745 362.626 485.015 362.626C485.291 362.626 485.55 362.692 485.794 362.824C486.037 362.948 486.221 363.113 486.346 363.317H486.366C486.497 363.113 486.684 362.948 486.928 362.824C487.171 362.692 487.437 362.626 487.726 362.626C488.351 362.626 488.844 362.791 489.205 363.119C489.573 363.448 489.757 363.882 489.757 364.421V368H488.584V364.687C488.584 364.431 488.508 364.22 488.357 364.056C488.213 363.892 487.986 363.81 487.677 363.81C487.388 363.81 487.164 363.885 487.006 364.036C486.855 364.187 486.78 364.381 486.78 364.618V368H485.606V364.687C485.606 364.437 485.527 364.23 485.37 364.066C485.212 363.895 484.988 363.81 484.699 363.81C484.403 363.81 484.18 363.885 484.029 364.036C483.878 364.187 483.802 364.381 483.802 364.618V368H482.56ZM492.373 364.845V365.92C492.373 366.222 492.474 366.478 492.678 366.689C492.882 366.892 493.155 366.994 493.497 366.994C493.871 366.994 494.177 366.856 494.414 366.58C494.657 366.304 494.778 365.906 494.778 365.387C494.778 364.868 494.66 364.47 494.423 364.194C494.187 363.918 493.878 363.78 493.497 363.78C493.155 363.78 492.882 363.885 492.678 364.095C492.474 364.299 492.373 364.549 492.373 364.845ZM491.091 370.218V362.774H492.313V363.277H492.333C492.346 363.257 492.363 363.234 492.382 363.208C492.402 363.175 492.451 363.123 492.53 363.05C492.616 362.978 492.708 362.912 492.806 362.853C492.905 362.794 493.036 362.741 493.201 362.695C493.372 362.649 493.552 362.626 493.743 362.626C494.361 362.626 494.9 362.876 495.36 363.376C495.827 363.869 496.06 364.539 496.06 365.387C496.06 366.242 495.837 366.915 495.39 367.408C494.943 367.901 494.4 368.148 493.763 368.148C493.572 368.148 493.395 368.125 493.23 368.079C493.073 368.033 492.944 367.98 492.846 367.921C492.747 367.855 492.662 367.793 492.589 367.734C492.517 367.668 492.465 367.612 492.432 367.566L492.392 367.497H492.373V370.218H491.091Z" fill="#7986A3"/>
<path d="M517.878 276L517.484 274.866H514.851L514.457 276H513.135L515.63 269.098H516.764L519.249 276H517.878ZM516.162 271.07L515.226 273.762H517.109L516.182 271.07H516.162ZM522.551 276V269.098H525.351C526.061 269.098 526.633 269.299 527.066 269.7C527.507 270.094 527.727 270.626 527.727 271.297C527.727 271.796 527.596 272.22 527.333 272.569C527.076 272.917 526.721 273.164 526.268 273.308L527.737 276H526.297L524.907 273.436H523.882V276H522.551ZM523.882 272.283H525.242C525.998 272.283 526.376 271.954 526.376 271.297C526.376 270.633 525.998 270.301 525.242 270.301H523.882V272.283ZM531.698 276V275.497H531.678C531.665 275.517 531.649 275.543 531.629 275.576C531.609 275.602 531.56 275.652 531.481 275.724C531.402 275.796 531.313 275.862 531.215 275.921C531.116 275.98 530.982 276.033 530.811 276.079C530.64 276.125 530.456 276.148 530.258 276.148C529.627 276.148 529.154 276 528.839 275.704C528.53 275.402 528.375 275.034 528.375 274.6C528.375 274.146 528.51 273.801 528.779 273.565C529.049 273.328 529.506 273.131 530.15 272.973C530.748 272.828 531.123 272.713 531.274 272.628C531.425 272.542 531.501 272.421 531.501 272.263C531.501 272.105 531.425 271.974 531.274 271.869C531.129 271.764 530.909 271.711 530.613 271.711C530.265 271.711 530.015 271.79 529.864 271.948C529.713 272.099 529.595 272.306 529.509 272.569L528.444 272.125C528.569 271.685 528.812 271.326 529.174 271.05C529.535 270.768 530.009 270.626 530.594 270.626C531.231 270.626 531.754 270.794 532.161 271.129C532.569 271.464 532.773 271.984 532.773 272.687V276H531.698ZM530.406 273.86C530.078 273.939 529.861 274.035 529.756 274.146C529.657 274.252 529.608 274.373 529.608 274.511C529.608 274.866 529.864 275.044 530.377 275.044C530.765 275.044 531.054 274.971 531.244 274.827C531.442 274.675 531.54 274.491 531.54 274.275V273.367H531.521C531.494 273.42 531.465 273.463 531.432 273.496C531.406 273.522 531.307 273.571 531.136 273.643C530.965 273.709 530.722 273.782 530.406 273.86ZM534.321 276V271.859H533.512V270.774H534.35V270.035C534.35 269.588 534.466 269.272 534.696 269.088C534.932 268.898 535.274 268.802 535.721 268.802H536.746V269.936H535.987C535.829 269.936 535.718 269.969 535.652 270.035C535.593 270.094 535.563 270.199 535.563 270.35V270.774H536.884V271.859H535.603V276H534.321ZM537.845 274.136V271.859H537.037V270.774H537.875V269.492H539.087V270.774H540.409V271.859H539.107V274.018C539.107 274.294 539.153 274.488 539.245 274.6C539.337 274.712 539.525 274.768 539.807 274.768H540.231V276H539.689C538.986 276 538.502 275.852 538.239 275.556C537.977 275.261 537.845 274.787 537.845 274.136ZM544.784 274.196L545.681 274.984C545.148 275.76 544.429 276.148 543.522 276.148C542.792 276.148 542.197 275.898 541.737 275.399C541.277 274.892 541.047 274.222 541.047 273.387C541.047 272.552 541.274 271.885 541.727 271.386C542.187 270.879 542.766 270.626 543.462 270.626C544.159 270.626 544.731 270.879 545.178 271.386C545.632 271.885 545.858 272.552 545.858 273.387V273.772H542.348C542.368 274.173 542.476 274.482 542.674 274.698C542.877 274.909 543.153 275.014 543.502 275.014C543.798 275.014 544.041 274.942 544.232 274.797C544.429 274.646 544.613 274.445 544.784 274.196ZM542.348 272.815H544.616C544.583 272.48 544.468 272.22 544.271 272.036C544.074 271.846 543.804 271.75 543.462 271.75C543.147 271.75 542.887 271.852 542.684 272.056C542.486 272.26 542.375 272.513 542.348 272.815ZM546.89 276V270.774H548.103V271.326H548.122C548.221 271.129 548.366 270.971 548.556 270.853C548.753 270.735 548.967 270.676 549.197 270.676C549.361 270.676 549.519 270.709 549.67 270.774L549.473 272.017C549.329 271.964 549.194 271.938 549.069 271.938C548.471 271.938 548.172 272.335 548.172 273.131V276H546.89ZM550.116 274.275L551.27 273.979C551.362 274.708 551.753 275.073 552.443 275.073C552.758 275.073 553.008 275.024 553.192 274.925C553.383 274.82 553.478 274.675 553.478 274.491C553.478 274.34 553.406 274.229 553.261 274.156C553.117 274.077 552.814 273.972 552.354 273.841C552.229 273.808 552.134 273.782 552.068 273.762C551.463 273.591 551.02 273.39 550.737 273.16C550.454 272.924 550.313 272.611 550.313 272.224C550.313 271.79 550.487 271.415 550.836 271.1C551.191 270.784 551.674 270.626 552.285 270.626C553.455 270.626 554.188 271.139 554.484 272.164L553.419 272.49C553.327 272.24 553.196 272.043 553.025 271.898C552.86 271.754 552.617 271.681 552.295 271.681C552.045 271.681 551.845 271.731 551.694 271.829C551.549 271.921 551.477 272.033 551.477 272.164C551.477 272.309 551.562 272.424 551.733 272.51C551.91 272.588 552.348 272.727 553.044 272.924C553.656 273.088 554.07 273.298 554.287 273.555C554.51 273.805 554.622 274.127 554.622 274.521C554.622 274.942 554.438 275.32 554.07 275.655C553.708 275.984 553.182 276.148 552.492 276.148C551.769 276.148 551.21 275.967 550.816 275.606C550.428 275.237 550.195 274.794 550.116 274.275Z" fill="#7986A3"/>
<path d="M460.757 198L460.363 196.866H457.73L457.336 198H456.015L458.509 191.098H459.643L462.128 198H460.757ZM459.042 193.07L458.105 195.762H459.988L459.061 193.07H459.042ZM466.761 198V192.331H464.739V191.098H470.113V192.331H468.092V198H466.761ZM471.349 196.58C471.559 196.856 471.849 196.994 472.217 196.994C472.585 196.994 472.874 196.856 473.084 196.58C473.295 196.298 473.4 195.9 473.4 195.387C473.4 194.874 473.291 194.48 473.074 194.204C472.864 193.921 472.578 193.78 472.217 193.78C471.855 193.78 471.566 193.918 471.349 194.194C471.139 194.47 471.033 194.868 471.033 195.387C471.033 195.906 471.139 196.304 471.349 196.58ZM473.972 197.418C473.512 197.905 472.927 198.148 472.217 198.148C471.507 198.148 470.922 197.905 470.462 197.418C470.001 196.932 469.771 196.255 469.771 195.387C469.771 194.533 470.008 193.859 470.481 193.366C470.955 192.873 471.533 192.626 472.217 192.626C472.9 192.626 473.479 192.873 473.952 193.366C474.425 193.859 474.662 194.533 474.662 195.387C474.662 196.255 474.432 196.932 473.972 197.418ZM476.46 198L475.307 192.774H476.559L477.249 196.265H477.279L478.442 192.774H479.606L480.68 196.255H480.7L481.489 192.774H482.721L481.469 198H480.207L479.014 194.243H478.994L477.703 198H476.46ZM486.998 196.196L487.896 196.984C487.363 197.76 486.643 198.148 485.736 198.148C485.007 198.148 484.412 197.898 483.952 197.399C483.491 196.892 483.261 196.222 483.261 195.387C483.261 194.552 483.488 193.885 483.942 193.386C484.402 192.879 484.98 192.626 485.677 192.626C486.374 192.626 486.946 192.879 487.393 193.386C487.846 193.885 488.073 194.552 488.073 195.387V195.772H484.563C484.583 196.173 484.691 196.482 484.888 196.698C485.092 196.909 485.368 197.014 485.717 197.014C486.012 197.014 486.256 196.942 486.446 196.797C486.643 196.646 486.827 196.445 486.998 196.196ZM484.563 194.815H486.831C486.798 194.48 486.683 194.22 486.486 194.036C486.288 193.846 486.019 193.75 485.677 193.75C485.362 193.75 485.102 193.852 484.898 194.056C484.701 194.26 484.589 194.513 484.563 194.815ZM489.105 198V192.774H490.317V193.326H490.337C490.436 193.129 490.58 192.971 490.771 192.853C490.968 192.735 491.182 192.676 491.412 192.676C491.576 192.676 491.734 192.709 491.885 192.774L491.688 194.017C491.543 193.964 491.408 193.938 491.284 193.938C490.685 193.938 490.386 194.335 490.386 195.131V198H489.105Z" fill="#7986A3"/>
<path d="M605.079 162V155.098H608.008C608.619 155.098 609.109 155.279 609.477 155.64C609.852 155.995 610.039 156.432 610.039 156.952C610.039 157.53 609.789 157.967 609.29 158.263V158.273C609.585 158.398 609.825 158.598 610.009 158.874C610.2 159.144 610.295 159.469 610.295 159.851C610.295 160.508 610.095 161.034 609.694 161.428C609.293 161.809 608.632 162 607.712 162H605.079ZM606.41 160.768H608.018C608.649 160.768 608.964 160.462 608.964 159.851C608.964 159.568 608.879 159.351 608.708 159.2C608.543 159.042 608.317 158.963 608.027 158.963H606.41V160.768ZM606.41 157.879H607.84C608.11 157.879 608.32 157.816 608.471 157.691C608.629 157.56 608.708 157.369 608.708 157.119C608.708 156.856 608.632 156.659 608.481 156.528C608.33 156.396 608.116 156.331 607.84 156.331H606.41V157.879ZM614.362 162V161.497H614.342C614.329 161.517 614.312 161.543 614.293 161.576C614.273 161.602 614.224 161.652 614.145 161.724C614.066 161.796 613.977 161.862 613.878 161.921C613.78 161.98 613.645 162.033 613.474 162.079C613.303 162.125 613.119 162.148 612.922 162.148C612.291 162.148 611.818 162 611.502 161.704C611.193 161.402 611.039 161.034 611.039 160.6C611.039 160.146 611.174 159.801 611.443 159.565C611.713 159.328 612.169 159.131 612.814 158.973C613.412 158.828 613.786 158.713 613.938 158.628C614.089 158.542 614.164 158.421 614.164 158.263C614.164 158.105 614.089 157.974 613.938 157.869C613.793 157.764 613.573 157.711 613.277 157.711C612.929 157.711 612.679 157.79 612.528 157.948C612.376 158.099 612.258 158.306 612.173 158.569L611.108 158.125C611.233 157.685 611.476 157.326 611.837 157.05C612.199 156.768 612.672 156.626 613.257 156.626C613.895 156.626 614.418 156.794 614.825 157.129C615.233 157.464 615.436 157.984 615.436 158.687V162H614.362ZM613.07 159.86C612.741 159.939 612.524 160.035 612.419 160.146C612.321 160.252 612.271 160.373 612.271 160.511C612.271 160.866 612.528 161.044 613.04 161.044C613.428 161.044 613.717 160.971 613.908 160.827C614.105 160.675 614.204 160.491 614.204 160.275V159.367H614.184C614.158 159.42 614.128 159.463 614.095 159.496C614.069 159.522 613.971 159.571 613.8 159.643C613.629 159.709 613.385 159.782 613.07 159.86ZM619.854 159.89L621.067 160.205C620.948 160.83 620.692 161.31 620.297 161.645C619.903 161.98 619.407 162.148 618.809 162.148C618.099 162.148 617.514 161.905 617.054 161.418C616.6 160.932 616.373 160.255 616.373 159.387C616.373 158.526 616.607 157.852 617.073 157.366C617.547 156.873 618.128 156.626 618.818 156.626C619.403 156.626 619.893 156.797 620.288 157.139C620.682 157.481 620.925 157.938 621.017 158.51L619.824 158.736C619.699 158.099 619.364 157.78 618.818 157.78C618.457 157.78 618.168 157.918 617.951 158.194C617.74 158.464 617.635 158.861 617.635 159.387C617.635 159.913 617.74 160.314 617.951 160.59C618.161 160.86 618.45 160.994 618.818 160.994C619.397 160.994 619.742 160.626 619.854 159.89ZM622.053 162V154.802H623.334V158.934H623.354L625.257 156.774H626.864L624.981 158.894L627.032 162H625.612L624.015 159.614H623.995L623.334 160.363V162H622.053ZM634.291 162L633.896 160.866H631.264L630.869 162H629.548L632.043 155.098H633.177L635.661 162H634.291ZM632.575 157.07L631.638 159.762H633.522L632.595 157.07H632.575Z" fill="#7986A3"/>
<path d="M555.968 113.693L557.369 113.387C557.454 113.926 557.592 114.317 557.783 114.56C557.98 114.797 558.299 114.915 558.739 114.915C559.114 114.915 559.413 114.85 559.636 114.718C559.86 114.58 559.972 114.38 559.972 114.117C559.972 113.841 559.863 113.63 559.646 113.486C559.436 113.335 558.949 113.141 558.187 112.904C557.47 112.68 556.961 112.411 556.659 112.095C556.363 111.773 556.215 111.379 556.215 110.912C556.215 110.373 556.422 109.913 556.836 109.532C557.257 109.144 557.825 108.95 558.542 108.95C559.193 108.95 559.751 109.108 560.218 109.423C560.691 109.739 560.987 110.209 561.106 110.833L559.814 111.159C559.61 110.508 559.186 110.183 558.542 110.183C558.2 110.183 557.944 110.248 557.773 110.38C557.609 110.511 557.526 110.686 557.526 110.902C557.526 111.106 557.622 111.264 557.812 111.376C558.003 111.481 558.493 111.668 559.281 111.938C560.044 112.201 560.566 112.487 560.849 112.796C561.132 113.098 561.273 113.509 561.273 114.028C561.273 114.639 561.043 115.145 560.583 115.546C560.123 115.947 559.508 116.148 558.739 116.148C557.957 116.148 557.323 115.944 556.836 115.537C556.356 115.122 556.067 114.508 555.968 113.693ZM565.342 113.89L566.555 114.205C566.436 114.83 566.18 115.31 565.786 115.645C565.391 115.98 564.895 116.148 564.297 116.148C563.587 116.148 563.002 115.905 562.542 115.418C562.088 114.932 561.861 114.255 561.861 113.387C561.861 112.526 562.095 111.852 562.561 111.366C563.035 110.873 563.616 110.626 564.307 110.626C564.892 110.626 565.381 110.797 565.776 111.139C566.17 111.481 566.413 111.938 566.505 112.51L565.312 112.736C565.187 112.099 564.852 111.78 564.307 111.78C563.945 111.78 563.656 111.918 563.439 112.194C563.229 112.464 563.123 112.861 563.123 113.387C563.123 113.913 563.229 114.314 563.439 114.59C563.649 114.86 563.938 114.994 564.307 114.994C564.885 114.994 565.23 114.626 565.342 113.89ZM567.541 116V110.774H568.754V111.326H568.773C568.872 111.129 569.016 110.971 569.207 110.853C569.404 110.735 569.618 110.676 569.848 110.676C570.012 110.676 570.17 110.709 570.321 110.774L570.124 112.017C569.979 111.964 569.845 111.938 569.72 111.938C569.122 111.938 568.823 112.335 568.823 113.131V116H567.541ZM574.553 114.196L575.45 114.984C574.918 115.76 574.198 116.148 573.291 116.148C572.561 116.148 571.966 115.898 571.506 115.399C571.046 114.892 570.816 114.222 570.816 113.387C570.816 112.552 571.043 111.885 571.496 111.386C571.957 110.879 572.535 110.626 573.232 110.626C573.929 110.626 574.5 110.879 574.947 111.386C575.401 111.885 575.628 112.552 575.628 113.387V113.772H572.118C572.137 114.173 572.246 114.482 572.443 114.698C572.647 114.909 572.923 115.014 573.271 115.014C573.567 115.014 573.81 114.942 574.001 114.797C574.198 114.646 574.382 114.445 574.553 114.196ZM572.118 112.815H574.385C574.353 112.48 574.238 112.22 574.04 112.036C573.843 111.846 573.574 111.75 573.232 111.75C572.916 111.75 572.657 111.852 572.453 112.056C572.256 112.26 572.144 112.513 572.118 112.815ZM580.051 114.196L580.948 114.984C580.416 115.76 579.696 116.148 578.789 116.148C578.059 116.148 577.465 115.898 577.004 115.399C576.544 114.892 576.314 114.222 576.314 113.387C576.314 112.552 576.541 111.885 576.995 111.386C577.455 110.879 578.033 110.626 578.73 110.626C579.427 110.626 579.999 110.879 580.445 111.386C580.899 111.885 581.126 112.552 581.126 113.387V113.772H577.616C577.635 114.173 577.744 114.482 577.941 114.698C578.145 114.909 578.421 115.014 578.769 115.014C579.065 115.014 579.308 114.942 579.499 114.797C579.696 114.646 579.88 114.445 580.051 114.196ZM577.616 112.815H579.883C579.851 112.48 579.736 112.22 579.538 112.036C579.341 111.846 579.072 111.75 578.73 111.75C578.414 111.75 578.155 111.852 577.951 112.056C577.754 112.26 577.642 112.513 577.616 112.815ZM582.157 116V110.774H583.39V111.277H583.41C583.554 111.093 583.751 110.939 584.001 110.814C584.251 110.689 584.514 110.626 584.79 110.626C585.368 110.626 585.822 110.801 586.151 111.149C586.479 111.491 586.644 111.967 586.644 112.579V116H585.362V112.894C585.362 112.533 585.293 112.263 585.155 112.086C585.017 111.902 584.78 111.81 584.445 111.81C584.129 111.81 583.883 111.902 583.705 112.086C583.528 112.263 583.439 112.503 583.439 112.805V116H582.157ZM587.579 114.275L588.732 113.979C588.824 114.708 589.216 115.073 589.906 115.073C590.221 115.073 590.471 115.024 590.655 114.925C590.846 114.82 590.941 114.675 590.941 114.491C590.941 114.34 590.869 114.229 590.724 114.156C590.579 114.077 590.277 113.972 589.817 113.841C589.692 113.808 589.597 113.782 589.531 113.762C588.926 113.591 588.483 113.39 588.2 113.16C587.917 112.924 587.776 112.611 587.776 112.224C587.776 111.79 587.95 111.415 588.299 111.1C588.653 110.784 589.137 110.626 589.748 110.626C590.918 110.626 591.651 111.139 591.947 112.164L590.882 112.49C590.79 112.24 590.658 112.043 590.487 111.898C590.323 111.754 590.08 111.681 589.758 111.681C589.508 111.681 589.308 111.731 589.156 111.829C589.012 111.921 588.939 112.033 588.939 112.164C588.939 112.309 589.025 112.424 589.196 112.51C589.373 112.588 589.81 112.727 590.507 112.924C591.118 113.088 591.533 113.298 591.75 113.555C591.973 113.805 592.085 114.127 592.085 114.521C592.085 114.942 591.901 115.32 591.533 115.655C591.171 115.984 590.645 116.148 589.955 116.148C589.232 116.148 588.673 115.967 588.279 115.606C587.891 115.237 587.658 114.794 587.579 114.275Z" fill="#7986A3"/>
<path d="M372.626 313V306.098H373.997L375.998 310.574H376.018L378.019 306.098H379.4V313H378.098V308.76H378.079L376.116 313H375.9L373.937 308.76H373.918V313H372.626ZM380.876 313V307.774H382.157V313H380.876ZM380.876 307.015V305.802H382.157V307.015H380.876ZM386.777 310.86V309.904C386.777 309.588 386.675 309.322 386.471 309.105C386.274 308.888 386.001 308.78 385.653 308.78C385.278 308.78 384.986 308.915 384.776 309.184C384.572 309.454 384.47 309.855 384.47 310.387C384.47 310.913 384.572 311.314 384.776 311.59C384.986 311.86 385.278 311.994 385.653 311.994C386.001 311.994 386.274 311.886 386.471 311.669C386.675 311.445 386.777 311.176 386.777 310.86ZM386.856 313V312.497H386.836C386.803 312.543 386.754 312.602 386.688 312.675C386.629 312.747 386.478 312.846 386.235 312.97C385.998 313.089 385.739 313.148 385.456 313.148C384.766 313.148 384.214 312.898 383.799 312.399C383.392 311.899 383.188 311.229 383.188 310.387C383.188 309.539 383.412 308.869 383.859 308.376C384.306 307.876 384.831 307.626 385.436 307.626C385.712 307.626 385.959 307.682 386.176 307.794C386.399 307.899 386.55 308.004 386.629 308.109L386.757 308.277H386.777V305.802H388.059V313H386.856ZM393.754 313L391.26 306.098H392.66L394.366 310.998H394.395L396.052 306.098H397.432L394.967 313H393.754ZM401.118 311.196L402.015 311.984C401.483 312.76 400.763 313.148 399.856 313.148C399.126 313.148 398.531 312.898 398.071 312.399C397.611 311.892 397.381 311.222 397.381 310.387C397.381 309.552 397.608 308.885 398.061 308.386C398.521 307.879 399.1 307.626 399.797 307.626C400.493 307.626 401.065 307.879 401.512 308.386C401.966 308.885 402.193 309.552 402.193 310.387V310.772H398.682C398.702 311.173 398.811 311.482 399.008 311.698C399.212 311.909 399.488 312.014 399.836 312.014C400.132 312.014 400.375 311.942 400.566 311.797C400.763 311.646 400.947 311.445 401.118 311.196ZM398.682 309.815H400.95C400.917 309.48 400.802 309.22 400.605 309.036C400.408 308.846 400.138 308.75 399.797 308.75C399.481 308.75 399.221 308.852 399.018 309.056C398.821 309.26 398.709 309.513 398.682 309.815ZM403.224 313V307.774H404.457V308.277H404.476C404.621 308.093 404.818 307.939 405.068 307.814C405.318 307.689 405.581 307.626 405.857 307.626C406.435 307.626 406.889 307.801 407.217 308.149C407.546 308.491 407.71 308.967 407.71 309.579V313H406.429V309.894C406.429 309.533 406.36 309.263 406.222 309.086C406.084 308.902 405.847 308.81 405.512 308.81C405.196 308.81 404.95 308.902 404.772 309.086C404.595 309.263 404.506 309.503 404.506 309.805V313H403.224ZM409.306 311.136V308.859H408.498V307.774H409.336V306.492H410.549V307.774H411.87V308.859H410.568V311.018C410.568 311.294 410.614 311.488 410.706 311.6C410.798 311.712 410.986 311.768 411.268 311.768H411.692V313H411.15C410.447 313 409.963 312.852 409.701 312.556C409.438 312.261 409.306 311.787 409.306 311.136Z" fill="#7986A3"/>
<path d="M319.244 355V349.331H317.223V348.098H322.596V349.331H320.575V355H319.244ZM323.832 353.58C324.043 353.856 324.332 353.994 324.7 353.994C325.068 353.994 325.357 353.856 325.568 353.58C325.778 353.298 325.883 352.9 325.883 352.387C325.883 351.874 325.775 351.48 325.558 351.204C325.347 350.921 325.061 350.78 324.7 350.78C324.338 350.78 324.049 350.918 323.832 351.194C323.622 351.47 323.517 351.868 323.517 352.387C323.517 352.906 323.622 353.304 323.832 353.58ZM326.455 354.418C325.995 354.905 325.41 355.148 324.7 355.148C323.99 355.148 323.405 354.905 322.945 354.418C322.485 353.932 322.255 353.255 322.255 352.387C322.255 351.533 322.491 350.859 322.965 350.366C323.438 349.873 324.016 349.626 324.7 349.626C325.384 349.626 325.962 349.873 326.435 350.366C326.909 350.859 327.145 351.533 327.145 352.387C327.145 353.255 326.915 353.932 326.455 354.418ZM329.466 351.845V352.92C329.466 353.222 329.568 353.478 329.772 353.689C329.976 353.892 330.249 353.994 330.59 353.994C330.965 353.994 331.271 353.856 331.507 353.58C331.751 353.304 331.872 352.906 331.872 352.387C331.872 351.868 331.754 351.47 331.517 351.194C331.281 350.918 330.972 350.78 330.59 350.78C330.249 350.78 329.976 350.885 329.772 351.095C329.568 351.299 329.466 351.549 329.466 351.845ZM328.185 357.218V349.774H329.407V350.277H329.427C329.44 350.257 329.456 350.234 329.476 350.208C329.496 350.175 329.545 350.123 329.624 350.05C329.71 349.978 329.802 349.912 329.9 349.853C329.999 349.794 330.13 349.741 330.295 349.695C330.465 349.649 330.646 349.626 330.837 349.626C331.455 349.626 331.994 349.876 332.454 350.376C332.921 350.869 333.154 351.539 333.154 352.387C333.154 353.242 332.93 353.915 332.483 354.408C332.036 354.901 331.494 355.148 330.857 355.148C330.666 355.148 330.488 355.125 330.324 355.079C330.166 355.033 330.038 354.98 329.94 354.921C329.841 354.855 329.756 354.793 329.683 354.734C329.611 354.668 329.558 354.612 329.525 354.566L329.486 354.497H329.466V357.218H328.185ZM336.756 355V348.098H338.127L340.129 352.574H340.148L342.15 348.098H343.53V355H342.229V350.76H342.209L340.247 355H340.03L338.068 350.76H338.048V355H336.756ZM345.006 355V349.774H346.288V355H345.006ZM345.006 349.015V347.802H346.288V349.015H345.006ZM350.908 352.86V351.904C350.908 351.588 350.806 351.322 350.602 351.105C350.405 350.888 350.132 350.78 349.784 350.78C349.409 350.78 349.116 350.915 348.906 351.184C348.702 351.454 348.6 351.855 348.6 352.387C348.6 352.913 348.702 353.314 348.906 353.59C349.116 353.86 349.409 353.994 349.784 353.994C350.132 353.994 350.405 353.886 350.602 353.669C350.806 353.445 350.908 353.176 350.908 352.86ZM350.986 355V354.497H350.967C350.934 354.543 350.885 354.602 350.819 354.675C350.76 354.747 350.608 354.846 350.365 354.97C350.129 355.089 349.869 355.148 349.586 355.148C348.896 355.148 348.344 354.898 347.93 354.399C347.522 353.899 347.319 353.229 347.319 352.387C347.319 351.539 347.542 350.869 347.989 350.376C348.436 349.876 348.962 349.626 349.567 349.626C349.843 349.626 350.089 349.682 350.306 349.794C350.53 349.899 350.681 350.004 350.76 350.109L350.888 350.277H350.908V347.802H352.189V355H350.986Z" fill="#7986A3"/>
<path d="M242.574 355V348.098H243.945L245.947 352.574H245.966L247.968 348.098H249.348V355H248.047V350.76H248.027L246.065 355H245.848L243.886 350.76H243.866V355H242.574ZM250.824 355V349.774H252.106V355H250.824ZM250.824 349.015V347.802H252.106V349.015H250.824ZM256.726 352.86V351.904C256.726 351.588 256.624 351.322 256.42 351.105C256.223 350.888 255.95 350.78 255.602 350.78C255.227 350.78 254.934 350.915 254.724 351.184C254.52 351.454 254.418 351.855 254.418 352.387C254.418 352.913 254.52 353.314 254.724 353.59C254.934 353.86 255.227 353.994 255.602 353.994C255.95 353.994 256.223 353.886 256.42 353.669C256.624 353.445 256.726 353.176 256.726 352.86ZM256.804 355V354.497H256.785C256.752 354.543 256.703 354.602 256.637 354.675C256.578 354.747 256.426 354.846 256.183 354.97C255.947 355.089 255.687 355.148 255.404 355.148C254.714 355.148 254.162 354.898 253.748 354.399C253.34 353.899 253.137 353.229 253.137 352.387C253.137 351.539 253.36 350.869 253.807 350.376C254.254 349.876 254.78 349.626 255.385 349.626C255.661 349.626 255.907 349.682 256.124 349.794C256.348 349.899 256.499 350.004 256.578 350.109L256.706 350.277H256.726V347.802H258.007V355H256.804ZM261.948 355V348.098H263.318L265.32 352.574H265.339L267.341 348.098H268.721V355H267.42V350.76H267.4L265.438 355H265.221L263.259 350.76H263.239V355H261.948ZM273.175 355V354.497H273.155C273.142 354.517 273.126 354.543 273.106 354.576C273.086 354.602 273.037 354.652 272.958 354.724C272.879 354.796 272.79 354.862 272.692 354.921C272.593 354.98 272.458 355.033 272.288 355.079C272.117 355.125 271.933 355.148 271.735 355.148C271.104 355.148 270.631 355 270.316 354.704C270.007 354.402 269.852 354.034 269.852 353.6C269.852 353.146 269.987 352.801 270.256 352.565C270.526 352.328 270.983 352.131 271.627 351.973C272.225 351.828 272.6 351.713 272.751 351.628C272.902 351.542 272.978 351.421 272.978 351.263C272.978 351.105 272.902 350.974 272.751 350.869C272.606 350.764 272.386 350.711 272.09 350.711C271.742 350.711 271.492 350.79 271.341 350.948C271.19 351.099 271.072 351.306 270.986 351.569L269.921 351.125C270.046 350.685 270.289 350.326 270.651 350.05C271.012 349.768 271.486 349.626 272.071 349.626C272.708 349.626 273.231 349.794 273.638 350.129C274.046 350.464 274.25 350.984 274.25 351.687V355H273.175ZM271.883 352.86C271.555 352.939 271.338 353.035 271.233 353.146C271.134 353.252 271.085 353.373 271.085 353.511C271.085 353.866 271.341 354.044 271.854 354.044C272.242 354.044 272.531 353.971 272.721 353.827C272.919 353.675 273.017 353.491 273.017 353.275V352.367H272.997C272.971 352.42 272.942 352.463 272.909 352.496C272.882 352.522 272.784 352.571 272.613 352.643C272.442 352.709 272.199 352.782 271.883 352.86ZM275.532 355V349.774H276.813V355H275.532ZM275.532 349.015V347.802H276.813V349.015H275.532ZM278.189 355V347.802H279.52V355H278.189Z" fill="#7986A3"/>
<path d="M208.658 301V294.098H211.586C212.197 294.098 212.687 294.279 213.055 294.64C213.43 294.995 213.617 295.432 213.617 295.952C213.617 296.53 213.367 296.967 212.868 297.263V297.273C213.164 297.398 213.404 297.598 213.588 297.874C213.778 298.144 213.874 298.469 213.874 298.851C213.874 299.508 213.673 300.034 213.272 300.428C212.871 300.809 212.211 301 211.29 301H208.658ZM209.989 299.768H211.596C212.227 299.768 212.543 299.462 212.543 298.851C212.543 298.568 212.457 298.351 212.286 298.2C212.122 298.042 211.895 297.963 211.606 297.963H209.989V299.768ZM209.989 296.879H211.418C211.688 296.879 211.898 296.816 212.05 296.691C212.207 296.56 212.286 296.369 212.286 296.119C212.286 295.856 212.211 295.659 212.059 295.528C211.908 295.396 211.695 295.331 211.418 295.331H209.989V296.879ZM218.857 301V295.331H216.836V294.098H222.209V295.331H220.188V301H218.857ZM223.445 299.58C223.656 299.856 223.945 299.994 224.313 299.994C224.681 299.994 224.97 299.856 225.181 299.58C225.391 299.298 225.496 298.9 225.496 298.387C225.496 297.874 225.388 297.48 225.171 297.204C224.96 296.921 224.674 296.78 224.313 296.78C223.951 296.78 223.662 296.918 223.445 297.194C223.235 297.47 223.13 297.868 223.13 298.387C223.13 298.906 223.235 299.304 223.445 299.58ZM226.068 300.418C225.608 300.905 225.023 301.148 224.313 301.148C223.603 301.148 223.018 300.905 222.558 300.418C222.098 299.932 221.868 299.255 221.868 298.387C221.868 297.533 222.104 296.859 222.578 296.366C223.051 295.873 223.629 295.626 224.313 295.626C224.997 295.626 225.575 295.873 226.048 296.366C226.522 296.859 226.758 297.533 226.758 298.387C226.758 299.255 226.528 299.932 226.068 300.418ZM228.557 301L227.403 295.774H228.655L229.346 299.265H229.375L230.539 295.774H231.702L232.777 299.255H232.796L233.585 295.774H234.818L233.566 301H232.303L231.11 297.243H231.091L229.799 301H228.557ZM239.095 299.196L239.992 299.984C239.459 300.76 238.74 301.148 237.833 301.148C237.103 301.148 236.508 300.898 236.048 300.399C235.588 299.892 235.358 299.222 235.358 298.387C235.358 297.552 235.584 296.885 236.038 296.386C236.498 295.879 237.077 295.626 237.773 295.626C238.47 295.626 239.042 295.879 239.489 296.386C239.943 296.885 240.169 297.552 240.169 298.387V298.772H236.659C236.679 299.173 236.787 299.482 236.985 299.698C237.188 299.909 237.464 300.014 237.813 300.014C238.109 300.014 238.352 299.942 238.542 299.797C238.74 299.646 238.924 299.445 239.095 299.196ZM236.659 297.815H238.927C238.894 297.48 238.779 297.22 238.582 297.036C238.385 296.846 238.115 296.75 237.773 296.75C237.458 296.75 237.198 296.852 236.994 297.056C236.797 297.26 236.685 297.513 236.659 297.815ZM241.201 301V295.774H242.414V296.326H242.433C242.532 296.129 242.677 295.971 242.867 295.853C243.064 295.735 243.278 295.676 243.508 295.676C243.672 295.676 243.83 295.709 243.981 295.774L243.784 297.017C243.64 296.964 243.505 296.938 243.38 296.938C242.782 296.938 242.483 297.335 242.483 298.131V301H241.201Z" fill="#7986A3"/>
<path d="M259.197 229V222.098H262.125C262.737 222.098 263.226 222.279 263.594 222.64C263.969 222.995 264.156 223.432 264.156 223.952C264.156 224.53 263.907 224.967 263.407 225.263V225.273C263.703 225.398 263.943 225.598 264.127 225.874C264.318 226.144 264.413 226.469 264.413 226.851C264.413 227.508 264.212 228.034 263.811 228.428C263.41 228.809 262.75 229 261.83 229H259.197ZM260.528 227.768H262.135C262.766 227.768 263.082 227.462 263.082 226.851C263.082 226.568 262.996 226.351 262.825 226.2C262.661 226.042 262.434 225.963 262.145 225.963H260.528V227.768ZM260.528 224.879H261.958C262.227 224.879 262.438 224.816 262.589 224.691C262.746 224.56 262.825 224.369 262.825 224.119C262.825 223.856 262.75 223.659 262.599 223.528C262.447 223.396 262.234 223.331 261.958 223.331H260.528V224.879ZM267.621 226.693L269.021 226.387C269.107 226.926 269.245 227.317 269.436 227.56C269.633 227.797 269.952 227.915 270.392 227.915C270.767 227.915 271.066 227.85 271.289 227.718C271.513 227.58 271.625 227.38 271.625 227.117C271.625 226.841 271.516 226.63 271.299 226.486C271.089 226.335 270.602 226.141 269.84 225.904C269.123 225.68 268.614 225.411 268.312 225.095C268.016 224.773 267.868 224.379 267.868 223.912C267.868 223.373 268.075 222.913 268.489 222.532C268.91 222.144 269.478 221.95 270.195 221.95C270.846 221.95 271.404 222.108 271.871 222.423C272.344 222.739 272.64 223.209 272.758 223.833L271.467 224.159C271.263 223.508 270.839 223.183 270.195 223.183C269.853 223.183 269.597 223.248 269.426 223.38C269.261 223.511 269.179 223.686 269.179 223.902C269.179 224.106 269.275 224.264 269.465 224.376C269.656 224.481 270.146 224.668 270.934 224.938C271.697 225.201 272.219 225.487 272.502 225.796C272.785 226.098 272.926 226.509 272.926 227.028C272.926 227.639 272.696 228.145 272.236 228.546C271.776 228.947 271.161 229.148 270.392 229.148C269.61 229.148 268.975 228.944 268.489 228.537C268.009 228.122 267.72 227.508 267.621 226.693ZM274.126 227.136V224.859H273.317V223.774H274.155V222.492H275.368V223.774H276.689V224.859H275.388V227.018C275.388 227.294 275.434 227.488 275.526 227.6C275.618 227.712 275.805 227.768 276.088 227.768H276.512V229H275.969C275.266 229 274.783 228.852 274.52 228.556C274.257 228.261 274.126 227.787 274.126 227.136ZM280.554 229V228.497H280.534C280.521 228.517 280.504 228.543 280.485 228.576C280.465 228.602 280.416 228.652 280.337 228.724C280.258 228.796 280.169 228.862 280.071 228.921C279.972 228.98 279.837 229.033 279.666 229.079C279.495 229.125 279.311 229.148 279.114 229.148C278.483 229.148 278.01 229 277.694 228.704C277.385 228.402 277.231 228.034 277.231 227.6C277.231 227.146 277.366 226.801 277.635 226.565C277.905 226.328 278.362 226.131 279.006 225.973C279.604 225.828 279.979 225.713 280.13 225.628C280.281 225.542 280.357 225.421 280.357 225.263C280.357 225.105 280.281 224.974 280.13 224.869C279.985 224.764 279.765 224.711 279.469 224.711C279.121 224.711 278.871 224.79 278.72 224.948C278.569 225.099 278.45 225.306 278.365 225.569L277.3 225.125C277.425 224.685 277.668 224.326 278.03 224.05C278.391 223.768 278.864 223.626 279.449 223.626C280.087 223.626 280.61 223.794 281.017 224.129C281.425 224.464 281.628 224.984 281.628 225.687V229H280.554ZM279.262 226.86C278.933 226.939 278.717 227.035 278.611 227.146C278.513 227.252 278.463 227.373 278.463 227.511C278.463 227.866 278.72 228.044 279.233 228.044C279.62 228.044 279.91 227.971 280.1 227.827C280.297 227.675 280.396 227.491 280.396 227.275V226.367H280.376C280.35 226.42 280.32 226.463 280.288 226.496C280.261 226.522 280.163 226.571 279.992 226.643C279.821 226.709 279.578 226.782 279.262 226.86ZM282.91 229V223.774H284.192V229H282.91ZM282.91 223.015V221.802H284.192V223.015H282.91ZM285.568 229V223.774H286.781V224.326H286.8C286.899 224.129 287.044 223.971 287.234 223.853C287.431 223.735 287.645 223.676 287.875 223.676C288.04 223.676 288.197 223.709 288.348 223.774L288.151 225.017C288.007 224.964 287.872 224.938 287.747 224.938C287.149 224.938 286.85 225.335 286.85 226.131V229H285.568ZM288.794 227.275L289.948 226.979C290.04 227.708 290.431 228.073 291.121 228.073C291.436 228.073 291.686 228.024 291.87 227.925C292.061 227.82 292.156 227.675 292.156 227.491C292.156 227.34 292.084 227.229 291.939 227.156C291.795 227.077 291.492 226.972 291.032 226.841C290.907 226.808 290.812 226.782 290.746 226.762C290.142 226.591 289.698 226.39 289.415 226.16C289.133 225.924 288.991 225.611 288.991 225.224C288.991 224.79 289.165 224.415 289.514 224.1C289.869 223.784 290.352 223.626 290.963 223.626C292.133 223.626 292.866 224.139 293.162 225.164L292.097 225.49C292.005 225.24 291.874 225.043 291.703 224.898C291.538 224.754 291.295 224.681 290.973 224.681C290.723 224.681 290.523 224.731 290.372 224.829C290.227 224.921 290.155 225.033 290.155 225.164C290.155 225.309 290.24 225.424 290.411 225.51C290.589 225.588 291.026 225.727 291.722 225.924C292.334 226.088 292.748 226.298 292.965 226.555C293.188 226.805 293.3 227.127 293.3 227.521C293.3 227.942 293.116 228.32 292.748 228.655C292.386 228.984 291.86 229.148 291.17 229.148C290.447 229.148 289.888 228.967 289.494 228.606C289.106 228.237 288.873 227.794 288.794 227.275Z" fill="#7986A3"/>
<path d="M120.171 156V149.098H123.099C123.711 149.098 124.2 149.279 124.568 149.64C124.943 149.995 125.13 150.432 125.13 150.952C125.13 151.53 124.881 151.967 124.381 152.263V152.273C124.677 152.398 124.917 152.598 125.101 152.874C125.291 153.144 125.387 153.469 125.387 153.851C125.387 154.508 125.186 155.034 124.785 155.428C124.384 155.809 123.724 156 122.803 156H120.171ZM121.502 154.768H123.109C123.74 154.768 124.056 154.462 124.056 153.851C124.056 153.568 123.97 153.351 123.799 153.2C123.635 153.042 123.408 152.963 123.119 152.963H121.502V154.768ZM121.502 151.879H122.932C123.201 151.879 123.411 151.816 123.563 151.691C123.72 151.56 123.799 151.369 123.799 151.119C123.799 150.856 123.724 150.659 123.573 150.528C123.421 150.396 123.208 150.331 122.932 150.331H121.502V151.879ZM133.042 156L132.648 154.866H130.015L129.621 156H128.299L130.794 149.098H131.928L134.413 156H133.042ZM131.326 151.07L130.39 153.762H132.273L131.346 151.07H131.326ZM135.151 156V148.802H136.482V156H135.151ZM137.866 156V148.802H139.197V156H137.866ZM143.973 154.196L144.871 154.984C144.338 155.76 143.618 156.148 142.711 156.148C141.982 156.148 141.387 155.898 140.927 155.399C140.467 154.892 140.237 154.222 140.237 153.387C140.237 152.552 140.463 151.885 140.917 151.386C141.377 150.879 141.955 150.626 142.652 150.626C143.349 150.626 143.921 150.879 144.368 151.386C144.821 151.885 145.048 152.552 145.048 153.387V153.772H141.538C141.558 154.173 141.666 154.482 141.863 154.698C142.067 154.909 142.343 155.014 142.692 155.014C142.987 155.014 143.231 154.942 143.421 154.797C143.618 154.646 143.803 154.445 143.973 154.196ZM141.538 152.815H143.806C143.773 152.48 143.658 152.22 143.461 152.036C143.264 151.846 142.994 151.75 142.652 151.75C142.337 151.75 142.077 151.852 141.873 152.056C141.676 152.26 141.564 152.513 141.538 152.815ZM146.291 158.218L147.337 155.744L145.246 150.774H146.548L147.899 154.314H147.918L149.269 150.774H150.571L147.563 158.218H146.291Z" fill="#7986A3"/>
<path d="M17.9831 192V185.098H20.9115C21.5228 185.098 22.0125 185.279 22.3806 185.64C22.7553 185.995 22.9426 186.432 22.9426 186.952C22.9426 187.53 22.6928 187.967 22.1933 188.263V188.273C22.4891 188.398 22.729 188.598 22.913 188.874C23.1037 189.144 23.199 189.469 23.199 189.851C23.199 190.508 22.9985 191.034 22.5975 191.428C22.1965 191.809 21.5359 192 20.6157 192H17.9831ZM19.3142 190.768H20.9213C21.5524 190.768 21.8679 190.462 21.8679 189.851C21.8679 189.568 21.7824 189.351 21.6115 189.2C21.4472 189.042 21.2204 188.963 20.9312 188.963H19.3142V190.768ZM19.3142 187.879H20.7439C21.0134 187.879 21.2237 187.816 21.3749 187.691C21.5326 187.56 21.6115 187.369 21.6115 187.119C21.6115 186.856 21.5359 186.659 21.3847 186.528C21.2336 186.396 21.0199 186.331 20.7439 186.331H19.3142V187.879ZM27.2653 192V191.497H27.2456C27.2325 191.517 27.216 191.543 27.1963 191.576C27.1766 191.602 27.1273 191.652 27.0484 191.724C26.9695 191.796 26.8808 191.862 26.7822 191.921C26.6836 191.98 26.5489 192.033 26.3779 192.079C26.207 192.125 26.023 192.148 25.8258 192.148C25.1948 192.148 24.7215 192 24.406 191.704C24.097 191.402 23.9425 191.034 23.9425 190.6C23.9425 190.146 24.0773 189.801 24.3468 189.565C24.6163 189.328 25.0732 189.131 25.7173 188.973C26.3155 188.828 26.6902 188.713 26.8414 188.628C26.9926 188.542 27.0681 188.421 27.0681 188.263C27.0681 188.105 26.9926 187.974 26.8414 187.869C26.6968 187.764 26.4765 187.711 26.1808 187.711C25.8324 187.711 25.5826 187.79 25.4314 187.948C25.2802 188.099 25.1619 188.306 25.0764 188.569L24.0116 188.125C24.1365 187.685 24.3797 187.326 24.7412 187.05C25.1027 186.768 25.576 186.626 26.161 186.626C26.7986 186.626 27.3212 186.794 27.7288 187.129C28.1363 187.464 28.3401 187.984 28.3401 188.687V192H27.2653ZM25.9737 189.86C25.645 189.939 25.4281 190.035 25.3229 190.146C25.2243 190.252 25.175 190.373 25.175 190.511C25.175 190.866 25.4314 191.044 25.9441 191.044C26.3319 191.044 26.6212 190.971 26.8118 190.827C27.009 190.675 27.1076 190.491 27.1076 190.275V189.367H27.0879C27.0616 189.42 27.032 189.463 26.9991 189.496C26.9728 189.522 26.8742 189.571 26.7033 189.643C26.5324 189.709 26.2892 189.782 25.9737 189.86ZM32.7575 189.89L33.9702 190.205C33.8519 190.83 33.5956 191.31 33.2012 191.645C32.8068 191.98 32.3105 192.148 31.7123 192.148C31.0024 192.148 30.4174 191.905 29.9573 191.418C29.5037 190.932 29.2769 190.255 29.2769 189.387C29.2769 188.526 29.5103 187.852 29.977 187.366C30.4503 186.873 31.032 186.626 31.7222 186.626C32.3072 186.626 32.7969 186.797 33.1913 187.139C33.5857 187.481 33.8289 187.938 33.9209 188.51L32.7279 188.736C32.603 188.099 32.2678 187.78 31.7222 187.78C31.3607 187.78 31.0714 187.918 30.8545 188.194C30.6442 188.464 30.539 188.861 30.539 189.387C30.539 189.913 30.6442 190.314 30.8545 190.59C31.0649 190.86 31.3541 190.994 31.7222 190.994C32.3006 190.994 32.6457 190.626 32.7575 189.89ZM34.9564 192V184.802H36.2382V188.934H36.2579L38.1609 186.774H39.768L37.8848 188.894L39.9356 192H38.5158L36.9185 189.614H36.8988L36.2382 190.363V192H34.9564ZM43.1913 192V185.098H46.1197C46.7311 185.098 47.2208 185.279 47.5889 185.64C47.9635 185.995 48.1509 186.432 48.1509 186.952C48.1509 187.53 47.9011 187.967 47.4015 188.263V188.273C47.6973 188.398 47.9373 188.598 48.1213 188.874C48.3119 189.144 48.4072 189.469 48.4072 189.851C48.4072 190.508 48.2068 191.034 47.8058 191.428C47.4048 191.809 46.7442 192 45.8239 192H43.1913ZM44.5224 190.768H46.1296C46.7606 190.768 47.0762 190.462 47.0762 189.851C47.0762 189.568 46.9907 189.351 46.8198 189.2C46.6555 189.042 46.4287 188.963 46.1395 188.963H44.5224V190.768ZM44.5224 187.879H45.9521C46.2216 187.879 46.432 187.816 46.5832 187.691C46.7409 187.56 46.8198 187.369 46.8198 187.119C46.8198 186.856 46.7442 186.659 46.593 186.528C46.4418 186.396 46.2282 186.331 45.9521 186.331H44.5224V187.879Z" fill="#7986A3"/>
<path d="M152.779 257V250.098H155.707C156.318 250.098 156.808 250.279 157.176 250.64C157.551 250.995 157.738 251.432 157.738 251.952C157.738 252.53 157.488 252.967 156.989 253.263V253.273C157.285 253.398 157.525 253.598 157.709 253.874C157.899 254.144 157.995 254.469 157.995 254.851C157.995 255.508 157.794 256.034 157.393 256.428C156.992 256.809 156.332 257 155.411 257H152.779ZM154.11 255.768H155.717C156.348 255.768 156.664 255.462 156.664 254.851C156.664 254.568 156.578 254.351 156.407 254.2C156.243 254.042 156.016 253.963 155.727 253.963H154.11V255.768ZM154.11 252.879H155.539C155.809 252.879 156.019 252.816 156.171 252.691C156.328 252.56 156.407 252.369 156.407 252.119C156.407 251.856 156.332 251.659 156.18 251.528C156.029 251.396 155.816 251.331 155.539 251.331H154.11V252.879ZM161.647 257V250.098H164.447C165.157 250.098 165.729 250.299 166.163 250.7C166.603 251.094 166.823 251.626 166.823 252.297C166.823 252.796 166.692 253.22 166.429 253.569C166.173 253.917 165.818 254.164 165.364 254.308L166.833 257H165.394L164.003 254.436H162.978V257H161.647ZM162.978 253.283H164.339C165.095 253.283 165.472 252.954 165.472 252.297C165.472 251.633 165.095 251.301 164.339 251.301H162.978V253.283ZM170.794 257V256.497H170.775C170.761 256.517 170.745 256.543 170.725 256.576C170.706 256.602 170.656 256.652 170.577 256.724C170.499 256.796 170.41 256.862 170.311 256.921C170.213 256.98 170.078 257.033 169.907 257.079C169.736 257.125 169.552 257.148 169.355 257.148C168.724 257.148 168.25 257 167.935 256.704C167.626 256.402 167.472 256.034 167.472 255.6C167.472 255.146 167.606 254.801 167.876 254.565C168.145 254.328 168.602 254.131 169.246 253.973C169.844 253.828 170.219 253.713 170.37 253.628C170.522 253.542 170.597 253.421 170.597 253.263C170.597 253.105 170.522 252.974 170.37 252.869C170.226 252.764 170.006 252.711 169.71 252.711C169.361 252.711 169.112 252.79 168.96 252.948C168.809 253.099 168.691 253.306 168.605 253.569L167.541 253.125C167.665 252.685 167.909 252.326 168.27 252.05C168.632 251.768 169.105 251.626 169.69 251.626C170.328 251.626 170.85 251.794 171.258 252.129C171.665 252.464 171.869 252.984 171.869 253.687V257H170.794ZM169.503 254.86C169.174 254.939 168.957 255.035 168.852 255.146C168.753 255.252 168.704 255.373 168.704 255.511C168.704 255.866 168.96 256.044 169.473 256.044C169.861 256.044 170.15 255.971 170.341 255.827C170.538 255.675 170.637 255.491 170.637 255.275V254.367H170.617C170.591 254.42 170.561 254.463 170.528 254.496C170.502 254.522 170.403 254.571 170.232 254.643C170.061 254.709 169.818 254.782 169.503 254.86ZM173.417 257V252.859H172.609V251.774H173.447V251.035C173.447 250.588 173.562 250.272 173.792 250.088C174.029 249.898 174.37 249.802 174.817 249.802H175.843V250.936H175.084C174.926 250.936 174.814 250.969 174.748 251.035C174.689 251.094 174.66 251.199 174.66 251.35V251.774H175.981V252.859H174.699V257H173.417ZM176.941 255.136V252.859H176.133V251.774H176.971V250.492H178.184V251.774H179.505V252.859H178.203V255.018C178.203 255.294 178.249 255.488 178.341 255.6C178.433 255.712 178.621 255.768 178.903 255.768H179.327V257H178.785C178.082 257 177.599 256.852 177.336 256.556C177.073 256.261 176.941 255.787 176.941 255.136ZM183.88 255.196L184.777 255.984C184.245 256.76 183.525 257.148 182.618 257.148C181.888 257.148 181.293 256.898 180.833 256.399C180.373 255.892 180.143 255.222 180.143 254.387C180.143 253.552 180.37 252.885 180.823 252.386C181.284 251.879 181.862 251.626 182.559 251.626C183.255 251.626 183.827 251.879 184.274 252.386C184.728 252.885 184.955 253.552 184.955 254.387V254.772H181.445C181.464 255.173 181.573 255.482 181.77 255.698C181.974 255.909 182.25 256.014 182.598 256.014C182.894 256.014 183.137 255.942 183.328 255.797C183.525 255.646 183.709 255.445 183.88 255.196ZM181.445 253.815H183.712C183.679 253.48 183.564 253.22 183.367 253.036C183.17 252.846 182.901 252.75 182.559 252.75C182.243 252.75 181.984 252.852 181.78 253.056C181.583 253.26 181.471 253.513 181.445 253.815ZM185.986 257V251.774H187.199V252.326H187.219C187.317 252.129 187.462 251.971 187.653 251.853C187.85 251.735 188.063 251.676 188.293 251.676C188.458 251.676 188.616 251.709 188.767 251.774L188.57 253.017C188.425 252.964 188.29 252.938 188.165 252.938C187.567 252.938 187.268 253.335 187.268 254.131V257H185.986ZM189.212 255.275L190.366 254.979C190.458 255.708 190.849 256.073 191.539 256.073C191.855 256.073 192.104 256.024 192.289 255.925C192.479 255.82 192.574 255.675 192.574 255.491C192.574 255.34 192.502 255.229 192.358 255.156C192.213 255.077 191.911 254.972 191.45 254.841C191.326 254.808 191.23 254.782 191.165 254.762C190.56 254.591 190.116 254.39 189.833 254.16C189.551 253.924 189.409 253.611 189.409 253.224C189.409 252.79 189.584 252.415 189.932 252.1C190.287 251.784 190.77 251.626 191.381 251.626C192.551 251.626 193.284 252.139 193.58 253.164L192.515 253.49C192.423 253.24 192.292 253.043 192.121 252.898C191.957 252.754 191.713 252.681 191.391 252.681C191.142 252.681 190.941 252.731 190.79 252.829C190.645 252.921 190.573 253.033 190.573 253.164C190.573 253.309 190.658 253.424 190.829 253.51C191.007 253.588 191.444 253.727 192.141 253.924C192.752 254.088 193.166 254.298 193.383 254.555C193.606 254.805 193.718 255.127 193.718 255.521C193.718 255.942 193.534 256.32 193.166 256.655C192.805 256.984 192.279 257.148 191.588 257.148C190.865 257.148 190.307 256.967 189.912 256.606C189.524 256.237 189.291 255.794 189.212 255.275Z" fill="#7986A3"/>
<path d="M61.2768 406V399.098H64.2051C64.8165 399.098 65.3062 399.279 65.6743 399.64C66.049 399.995 66.2363 400.432 66.2363 400.952C66.2363 401.53 65.9865 401.967 65.4869 402.263V402.273C65.7827 402.398 66.0227 402.598 66.2067 402.874C66.3973 403.144 66.4927 403.469 66.4927 403.851C66.4927 404.508 66.2922 405.034 65.8912 405.428C65.4902 405.809 64.8296 406 63.9094 406H61.2768ZM62.6078 404.768H64.215C64.846 404.768 65.1616 404.462 65.1616 403.851C65.1616 403.568 65.0761 403.351 64.9052 403.2C64.7409 403.042 64.5141 402.963 64.2249 402.963H62.6078V404.768ZM62.6078 401.879H64.0375C64.307 401.879 64.5174 401.816 64.6686 401.691C64.8263 401.56 64.9052 401.369 64.9052 401.119C64.9052 400.856 64.8296 400.659 64.6784 400.528C64.5272 400.396 64.3136 400.331 64.0375 400.331H62.6078V401.879ZM70.1449 406V399.098H71.5154L73.517 403.574H73.5367L75.5383 399.098H76.9187V406H75.6172V401.76H75.5974L73.6353 406H73.4184L71.4563 401.76H71.4366V406H70.1449ZM81.3722 406V405.497H81.3525C81.3393 405.517 81.3229 405.543 81.3032 405.576C81.2835 405.602 81.2342 405.652 81.1553 405.724C81.0764 405.796 80.9877 405.862 80.8891 405.921C80.7905 405.98 80.6557 406.033 80.4848 406.079C80.3139 406.125 80.1298 406.148 79.9326 406.148C79.3016 406.148 78.8283 406 78.5128 405.704C78.2039 405.402 78.0494 405.034 78.0494 404.6C78.0494 404.146 78.1841 403.801 78.4537 403.565C78.7232 403.328 79.18 403.131 79.8242 402.973C80.4224 402.828 80.797 402.713 80.9482 402.628C81.0994 402.542 81.175 402.421 81.175 402.263C81.175 402.105 81.0994 401.974 80.9482 401.869C80.8036 401.764 80.5834 401.711 80.2876 401.711C79.9392 401.711 79.6894 401.79 79.5382 401.948C79.3871 402.099 79.2687 402.306 79.1833 402.569L78.1184 402.125C78.2433 401.685 78.4865 401.326 78.8481 401.05C79.2096 400.768 79.6829 400.626 80.2679 400.626C80.9055 400.626 81.4281 400.794 81.8356 401.129C82.2431 401.464 82.4469 401.984 82.4469 402.687V406H81.3722ZM80.0805 403.86C79.7519 403.939 79.535 404.035 79.4298 404.146C79.3312 404.252 79.2819 404.373 79.2819 404.511C79.2819 404.866 79.5382 405.044 80.051 405.044C80.4388 405.044 80.728 404.971 80.9186 404.827C81.1158 404.675 81.2144 404.491 81.2144 404.275V403.367H81.1947C81.1684 403.42 81.1388 403.463 81.106 403.496C81.0797 403.522 80.9811 403.571 80.8102 403.643C80.6393 403.709 80.3961 403.782 80.0805 403.86ZM83.7289 406V400.774H85.0107V406H83.7289ZM83.7289 400.015V398.802H85.0107V400.015H83.7289ZM86.3864 406V400.774H87.6189V401.277H87.6386C87.7832 401.093 87.9804 400.939 88.2302 400.814C88.48 400.689 88.7429 400.626 89.019 400.626C89.5975 400.626 90.051 400.801 90.3797 401.149C90.7084 401.491 90.8727 401.967 90.8727 402.579V406H89.5909V402.894C89.5909 402.533 89.5219 402.263 89.3838 402.086C89.2458 401.902 89.0092 401.81 88.6739 401.81C88.3584 401.81 88.1119 401.902 87.9344 402.086C87.757 402.263 87.6682 402.503 87.6682 402.805V406H86.3864Z" fill="#7986A3"/>
<path d="M314.888 89.375H316.097C316.409 89.375 316.682 89.3403 316.916 89.271C317.15 89.193 317.371 89.0543 317.579 88.855C317.787 88.6557 317.948 88.3567 318.06 87.958C318.173 87.5507 318.229 87.0437 318.229 86.437C318.229 85.423 318.039 84.6863 317.657 84.227C317.285 83.759 316.791 83.525 316.175 83.525H314.888V89.375ZM313.133 91V81.9H316.175C316.695 81.9 317.185 81.991 317.644 82.173C318.104 82.355 318.52 82.6237 318.892 82.979C319.265 83.3343 319.56 83.811 319.776 84.409C320.002 84.9983 320.114 85.6743 320.114 86.437C320.114 87.269 320.002 87.9927 319.776 88.608C319.551 89.2233 319.243 89.7 318.853 90.038C318.463 90.3673 318.039 90.61 317.579 90.766C317.129 90.922 316.635 91 316.097 91H313.133ZM325.956 88.621L327.139 89.661C326.437 90.6837 325.488 91.195 324.292 91.195C323.33 91.195 322.545 90.8657 321.939 90.207C321.332 89.5397 321.029 88.6557 321.029 87.555C321.029 86.4543 321.328 85.5747 321.926 84.916C322.532 84.2487 323.295 83.915 324.214 83.915C325.132 83.915 325.886 84.2487 326.476 84.916C327.074 85.5747 327.373 86.4543 327.373 87.555V88.062H322.745C322.771 88.5907 322.914 88.998 323.174 89.284C323.442 89.5613 323.806 89.7 324.266 89.7C324.656 89.7 324.976 89.6047 325.228 89.414C325.488 89.2147 325.73 88.9503 325.956 88.621ZM322.745 86.801H325.735C325.691 86.359 325.54 86.0167 325.28 85.774C325.02 85.5227 324.664 85.397 324.214 85.397C323.798 85.397 323.455 85.5313 323.187 85.8C322.927 86.0687 322.779 86.4023 322.745 86.801ZM329.084 91V85.54H328.018V84.11H329.123V83.135C329.123 82.5457 329.274 82.1297 329.578 81.887C329.89 81.6357 330.34 81.51 330.93 81.51H332.282V83.005H331.281C331.073 83.005 330.925 83.0483 330.839 83.135C330.761 83.213 330.722 83.3517 330.722 83.551V84.11H332.464V85.54H330.774V91H329.084ZM337.851 88.621L339.034 89.661C338.332 90.6837 337.383 91.195 336.187 91.195C335.225 91.195 334.441 90.8657 333.834 90.207C333.228 89.5397 332.924 88.6557 332.924 87.555C332.924 86.4543 333.223 85.5747 333.821 84.916C334.428 84.2487 335.191 83.915 336.109 83.915C337.028 83.915 337.782 84.2487 338.371 84.916C338.969 85.5747 339.268 86.4543 339.268 87.555V88.062H334.64C334.666 88.5907 334.809 88.998 335.069 89.284C335.338 89.5613 335.702 89.7 336.161 89.7C336.551 89.7 336.872 89.6047 337.123 89.414C337.383 89.2147 337.626 88.9503 337.851 88.621ZM334.64 86.801H337.63C337.587 86.359 337.435 86.0167 337.175 85.774C336.915 85.5227 336.56 85.397 336.109 85.397C335.693 85.397 335.351 85.5313 335.082 85.8C334.822 86.0687 334.675 86.4023 334.64 86.801ZM340.628 91V84.11H342.253V84.773H342.279C342.47 84.5303 342.73 84.3267 343.059 84.162C343.389 83.9973 343.735 83.915 344.099 83.915C344.862 83.915 345.46 84.1447 345.893 84.604C346.327 85.0547 346.543 85.683 346.543 86.489V91H344.853V86.905C344.853 86.4283 344.762 86.073 344.58 85.839C344.398 85.5963 344.086 85.475 343.644 85.475C343.228 85.475 342.903 85.5963 342.669 85.839C342.435 86.073 342.318 86.3893 342.318 86.788V91H340.628ZM352.573 88.179V86.918C352.573 86.502 352.439 86.151 352.17 85.865C351.91 85.579 351.551 85.436 351.091 85.436C350.597 85.436 350.212 85.6137 349.934 85.969C349.666 86.3243 349.531 86.853 349.531 87.555C349.531 88.2483 349.666 88.777 349.934 89.141C350.212 89.4963 350.597 89.674 351.091 89.674C351.551 89.674 351.91 89.531 352.17 89.245C352.439 88.9503 352.573 88.595 352.573 88.179ZM352.677 91V90.337H352.651C352.608 90.3977 352.543 90.4757 352.456 90.571C352.378 90.6663 352.179 90.7963 351.858 90.961C351.546 91.117 351.204 91.195 350.831 91.195C349.921 91.195 349.193 90.8657 348.647 90.207C348.11 89.5483 347.841 88.6643 347.841 87.555C347.841 86.437 348.136 85.553 348.725 84.903C349.315 84.2443 350.008 83.915 350.805 83.915C351.169 83.915 351.494 83.9887 351.78 84.136C352.075 84.2747 352.274 84.4133 352.378 84.552L352.547 84.773H352.573V81.51H354.263V91H352.677ZM360.55 88.621L361.733 89.661C361.031 90.6837 360.082 91.195 358.886 91.195C357.924 91.195 357.14 90.8657 356.533 90.207C355.927 89.5397 355.623 88.6557 355.623 87.555C355.623 86.4543 355.922 85.5747 356.52 84.916C357.127 84.2487 357.89 83.915 358.808 83.915C359.727 83.915 360.481 84.2487 361.07 84.916C361.668 85.5747 361.967 86.4543 361.967 87.555V88.062H357.339C357.365 88.5907 357.508 88.998 357.768 89.284C358.037 89.5613 358.401 89.7 358.86 89.7C359.25 89.7 359.571 89.6047 359.822 89.414C360.082 89.2147 360.325 88.9503 360.55 88.621ZM357.339 86.801H360.329C360.286 86.359 360.134 86.0167 359.874 85.774C359.614 85.5227 359.259 85.397 358.808 85.397C358.392 85.397 358.05 85.5313 357.781 85.8C357.521 86.0687 357.374 86.4023 357.339 86.801ZM363.327 91V84.11H364.926V84.838H364.952C365.082 84.578 365.273 84.37 365.524 84.214C365.784 84.058 366.066 83.98 366.369 83.98C366.586 83.98 366.794 84.0233 366.993 84.11L366.733 85.748C366.543 85.6787 366.365 85.644 366.2 85.644C365.412 85.644 365.017 86.1683 365.017 87.217V91H363.327ZM367.581 88.725L369.102 88.335C369.223 89.297 369.739 89.778 370.649 89.778C371.065 89.778 371.394 89.713 371.637 89.583C371.888 89.4443 372.014 89.2537 372.014 89.011C372.014 88.8117 371.919 88.6643 371.728 88.569C371.537 88.465 371.139 88.3263 370.532 88.153C370.367 88.1097 370.242 88.075 370.155 88.049C369.358 87.8237 368.773 87.5593 368.4 87.256C368.027 86.944 367.841 86.5323 367.841 86.021C367.841 85.449 368.071 84.955 368.53 84.539C368.998 84.123 369.635 83.915 370.441 83.915C371.984 83.915 372.95 84.591 373.34 85.943L371.936 86.372C371.815 86.0427 371.641 85.7827 371.416 85.592C371.199 85.4013 370.879 85.306 370.454 85.306C370.125 85.306 369.86 85.371 369.661 85.501C369.47 85.6223 369.375 85.7697 369.375 85.943C369.375 86.1337 369.488 86.2853 369.713 86.398C369.947 86.502 370.523 86.684 371.442 86.944C372.248 87.1607 372.794 87.438 373.08 87.776C373.375 88.1053 373.522 88.53 373.522 89.05C373.522 89.6047 373.279 90.103 372.794 90.545C372.317 90.9783 371.624 91.195 370.714 91.195C369.761 91.195 369.024 90.9567 368.504 90.48C367.993 89.9947 367.685 89.4097 367.581 88.725Z" fill="#24E8CC"/>
<path d="M44 333H69" stroke="#24E8AD" stroke-width="3" stroke-linecap="round"/>
<path d="M307 377H342" stroke="#24E8AD" stroke-width="3" stroke-linecap="round"/>
<path d="M447 319H498" stroke="#24E8AD" stroke-width="3" stroke-linecap="round"/>
<path d="M564 304H590" stroke="#24E8AD" stroke-width="3" stroke-linecap="round"/>
<path d="M239 458L239 484" stroke="#FF5859" stroke-width="3" stroke-linecap="round"/>
<path d="M423 435L423 460" stroke="#FF5859" stroke-width="3" stroke-linecap="round"/>
<path d="M610 422.5L644.5 465.5" stroke="#FF5859" stroke-width="3" stroke-linecap="round"/>
<path d="M109 479H181" stroke="#FF5859" stroke-width="3" stroke-linecap="round"/>
</g>
<defs>
<linearGradient id="paint0_linear" x1="356" y1="118.812" x2="356" y2="369.615" gradientUnits="userSpaceOnUse">
<stop offset="0.283288" stop-color="#24E8AD" stop-opacity="0"/>
<stop offset="1" stop-color="#24E8AD"/>
</linearGradient>
<linearGradient id="paint1_linear" x1="305.901" y1="346.888" x2="305.901" y2="594.932" gradientUnits="userSpaceOnUse">
<stop stop-color="#FF5859"/>
<stop offset="1" stop-color="#FF5859" stop-opacity="0"/>
</linearGradient>
<clipPath id="clip0">
<path d="M0 0H708V708H0V0Z" fill="white"/>
</clipPath>
</defs>
</svg>
